<svg xmlns="http://www.w3.org/2000/svg" xmlns:xlink="http://www.w3.org/1999/xlink" viewBox="0 0 195.662 211.755" height="282.34" width="260.883"><defs><filter id="A" x="-.013" y="-.012" width="1.025" height="1.023" color-interpolation-filters="sRGB"><feGaussianBlur stdDeviation=".995"/></filter><path id="B" d="M128.088 2.387c-12.38 3.954-22.234 14.019-35.58 15.325-21.562 4.873-45.479 8.35-61.406 25.294-12.441 12.299-21.05 30.421-17.986 48.056 4.791 10.069 15.019 15.664 21.996 23.948-6.627 10.131-15.857 18.222-22.743 28.169-7.621 6.581-12.703 16.526-8.415 26.398 2.422 12.042 4.895 24.079 7.815 36.012 13.478 6.907 9.447-14.199 14.266-20.859 5.25-9.669-6.016-16.455-11.966-22.109-9.502-9.249 12.302-7.739 17.005-12.797 11.286-8.18 11.976 8.692 14.65 15.995 3.481 14.222 3.68 29.134 1.295 43.549 14.212-4.578 17.506-20.808 26.339-31.006 8.155-12.988 15.984-26.23 25.368-38.39-13.131-10.386-27.759-19.739-37.177-33.957-2.202-12.031 9.713-23.61 3.186-35.398-4.994-6.228-2.539-21.005 6.669-11.577 4.928 4.229 18.664 20.04 20.877 6.704-.518-7.635 2.802-15.814 11.752-11.665 12.948 1.054 28.372.893 37.821 11.163-2.32 8.038-17.844 4.992-25.436 7.896-9.557 1.947-24.275 1.185-30.644 4.724 8.415 13.471 25.786 14.526 39.9 16.57 3.935 1.323-8.605 3.858-11.691 5.396-6.121 3.434-21.699 3.633-18.291 13.732 2.358 9.561 8.761 27.037 21.274 18.626 5.935-2.171 23.289-9.542 18.368 3.337-1.233 10.926-5.725 21.878-14.832 28.53-12.38 12.242-24.784 24.516-35.893 37.946-1.393 12.834 14.088 1.371 17.208-4.038 10.57-12.216 24.927-24.921 42.339-22.613 10.764.869 24.958 3.082 31.803-7.501 7.505-10.809 13.893-22.842 16.781-35.726 2.874-8.695-6.629-16.619-9.076-4.522-7.26 13.443-12.076 29.577-25.447 38.438-8.408-6.821-11.902-17.481-17.207-26.543 13.131-8.866 27.269-16.174 41.891-22.246-5.855-10.656-19.379-11.211-27.964-18.475-.912-9.807 4.794-19.482 5.075-29.593 2.166-11.485 4.311-22.99 7.345-34.285-4.369-12.462-16.323-1.804-24.248-.62-7.457-1.531-28.01-6.976-16.074-16.739 4.201-4.035 13.424-15.033 1.056-15.148zM36.325 73.93c3.28 7.015 12.723 12.098 11.281 20.566-8.134 3.075-20.927-2.59-20.985-11.974 1.676-3.673 7.234-7.19 9.704-8.592z"/></defs><use xlink:href="#B" opacity=".25" fill="#fff" filter="url(#A)"/><use xlink:href="#B"/></svg>