<svg xmlns="http://www.w3.org/2000/svg" xmlns:xlink="http://www.w3.org/1999/xlink" width="279.96" height="300.04" viewBox="0 0 209.972 225.03"><style><![CDATA[.B{filter:url(#A)}.C{color-interpolation-filters:sRGB}]]></style><defs><filter id="A" x="0" y="0" width="1" height="1" class="C"><feColorMatrix values="0 0 -1 0 1 0 -1 0 0 1 -1 0 0 0 1 -0.21 -0.72 -0.07 2 0 "/></filter><filter id="B" x="0" y="0" width="1" height="1" class="C"><feColorMatrix result="A" values="0 0 -1 0 1 0 -1 0 0 1 -1 0 0 0 1 -0.21 -0.72 -0.07 2 0 "/><feColorMatrix values="0 0 0 -1 0 0 0 0 -1 0 0 0 0 -1 0 0 0 0 1 0"/><feColorMatrix in="A" values="0 0 -1 0 1 0 -1 0 0 1 -1 0 0 0 1 -0.21 -0.72 -0.07 2 0 "/></filter><filter id="C" x="-.025" y="-.023" width="1.05" height="1.046" class="C"><feGaussianBlur stdDeviation="2.767"/></filter><path id="D" d="M209.38 6.6a23.47 23.47 0 0 0-4.856.68c-7.533.64-13.293 6.04-19.506 9.707-16.44 10.013-35.813 12.308-54.213 16.574-42.76 6.28-81.133 42.119-82.84 86.426-4.253 19.853 15.746 30.707 26.652 42.801-11.653 18.76-30.254 34.092-39.867 54.639.467 23.32 7.495 46.068 12.361 68.814 1.213 8.667 13.425 4.946 19.252 5.586 10.667-10.467 7.855-28.052 13.508-41.266 4.107-13.027-10.388-18.88-15.881-27.707 5.347-3.2 11.681-4.293 17.334-6.92 2.04-.973 5.799-2.494 5.666 1.213 7.853 19.453 11.174 40.786 7.947 61.666-2.053 6.133.773 12.601 7.227 13.828 15.4 4.693 18.827-15.293 27.094-23.373 15.04-21.16 27.08-44.388 43.16-64.814 1.787-2.76-.068-6.826 2.346-9.293 13.013 2.533 24.693-6.161 37.293-7.187-.48 25.787-24.372 39.214-39.559 56.48-10.893 13.173-28.867 23.614-29.787 42.107 3.653 8.24 15.346 7.986 22.186 3.652 12.16-10.92 23.308-23.227 36.375-33 18.773-14.8 43.386-1.706 64.119-9.199 17.093-9.72 24.214-29.654 31.854-46.721 6.667-11.227 5.467-28.107-4.293-36.707-8.213 2.333-6.961-5.293-9.361-9.467l-32.785-17.959c4.613-19.827 7.172-40.041 11.785-59.867 2.613-9.987 6.827-21.467.48-31-6.6-8.04-18.921-4.572-27.027-.879-8 5.547-19.079.96-25.266-4.307 3.427-9.253 16.893-16.481 10.906-28.121-2-4.99-7.254-6.553-12.305-6.387zm-29.979 81.43c11.969.045 23.921 2.431 34.949 7.078 1.28 3.227-3.612 2.052-5.398 3.252-14.333 3.187-29.28 2.694-43.693 5.654 2.067-4.973.252-13.401 5.865-15.641a91.39 91.39 0 0 1 8.277-.344zm-50.023 6.397c5.987 5.173 12.721 9.6 18.254 15.307-2.84 17.973 18.146 25.854 32.199 27.867-5.173 7.267-23.746 5.333-21.213 18.387-3.187 12.227 7.388 20.347 10.574 30.947-15.547-11.493-32.187-23.214-43.494-39.32.253-9.773 6.52-18.881 6.307-28.947 1.267-8.307-2.627-16.04-2.627-24.24zm-44.986 24.627c3.48.933 5.373 7.001 7.68 10.414-5.067.933-15.626-7.667-7.68-10.414zm191.73 56.801c-6.613 16.067-13.705 33.839-26.799 45.426-5.653-6.12-13.094-15.666-13.121-24.879 12.973-6.52 25.255-14.228 38.588-20.055z"/></defs><g transform="matrix(.75 0 0 .75 -21.079 .040087)"><use xlink:href="#D" filter="url(#C)"/><use xlink:href="#D" class="B"/><path d="M209 14.52c-3.41.176-7.106 1.835-9.799 3.373-21.493 17.893-50.746 18.308-76.293 26.281-37.32 9.173-70.133 44.747-66.506 84.693 5.68 11.933 16.52 20.052 26.174 28.559 12.787.08 14.128 6.043 38.318-1.172-11.307-11.64 4.574-26.801 3.121-40.201 1.267-10.867-6.466-19.998-6.519-30.398 3.253-2.2 7.8-6.974 11.467-2.561 9.787 6.027 17.813 17.267 28.227 20.854.947-8.493 3.546-16.695 4.813-25.135 12.68.253 25.266 1.493 37.893 2.693 10.693 2.973 28.907 6.268 30.707 19.521-24.667 8.147-50.72 8.892-76 12.426 12.84 18.96 39.028 16.587 58.814 21.494-14.28 8.827-32.641 10.159-46.975 19.652 31.105 6.154 62.094 9.031 92.307-2.68-5.4-4.427-12.213-6.653-18.439-9.666 7.36-28.453 10.761-57.773 18.334-86.146-3.773-13.773-18.308-2.241-26.814.945-13.173.347-24.293-7.132-34.52-14.479 5.813-8.587 13-16.214 18.52-25.014-1.697-2.415-4.176-3.178-6.828-3.041zM84.39 119.05c3.48.933 5.373 7.001 7.68 10.414-5.067.933-15.626-7.667-7.68-10.414z" fill="#c30000" filter="url(#B)"/><path d="M86.414 104.01c-5.773 5.2-12.121 10.039-17.121 15.973 4.933 14.56 21.574 22.947 35.961 15.773-2.32-11.76-13.6-20.959-18.84-31.746zm-2.027 15.039c3.48.933 5.373 7.001 7.68 10.414-5.067.933-15.626-7.667-7.68-10.414z" class="B"/></g><g fill="#ffff68" class="B"><path d="M103.75 115.99c23.08-.3 46.2-.55 69.23-2.01 4.89 2.85 13.8 4.23 14.77 9.72-14.51 6.09-28.64 13.57-41.62 22.45 4.63 9.61 10.25 18.67 16.25 27.47 1.15.78 2.6 2.16 3.88.78 16.21-10.89 19.91-31.44 30.39-46.47 5.54 12.95-3.26 24.33-8.02 35.85-4.49 6.21-7.51 15.11-15.85 17.03-12.32 2.94-25.17-2.58-37.21 1.85-14.43 4.91-23.53 17.79-34.3 27.69-1.84 3.36-6.04 3.24-9.41 3.73.22-4.11 3.18-7.39 6.13-9.97 12.2-13.79 25.28-26.7 38.5-39.49 5.94-9.28 7.83-20.7 8.39-31.58-10.92.59-21.3 5.05-31.57 7.87-2.7-8.21-10.76-17.31-9.56-24.92z"/><path d="M40.851 118.11c9.59.06 19.15-.8 28.74-.88 9.5 12 22.08 20.96 34.22 30.07-14.28 18.7-24.88 39.86-38.98 58.66-2.12 3.37-3.87 8.71-8.83 8.12 3.14-21.12.42-42.95-9.26-62.07-10.46 4.37-21.21 8-31.72 12.25 4.89 7.41 12.17 12.93 18.6 18.92-2.73 8.58-4.89 17.33-6.46 26.18.3 4.19-4.68 6.1-6.95 2.39-3.76-15.38-6.76-30.98-9.9-46.5 9.64-14.97 21.9-27.93 33.29-41.54 1.61-2.57-1.33-3.95-2.75-5.6z"/></g></svg>