<?xml version="1.0" encoding="UTF-8"?>
<svg width="209.97pt" height="225.03pt" version="1.1" viewBox="0 0 209.97208 225.03005" xmlns="http://www.w3.org/2000/svg">
<defs>
<filter id="f" x="0" y="0" width="1" height="1" color-interpolation-filters="sRGB">
<feColorMatrix result="color2" values="0 0 -1 0 1 0 -1 0 0 1 -1 0 0 0 1 -0.21 -0.72 -0.07 2 0 "/>
</filter>
<filter id="e" x="0" y="0" width="1" height="1" color-interpolation-filters="sRGB">
<feColorMatrix result="color2" values="0 0 -1 0 1 0 -1 0 0 1 -1 0 0 0 1 -0.21 -0.72 -0.07 2 0 "/>
</filter>
<filter id="d" x="0" y="0" width="1" height="1" color-interpolation-filters="sRGB">
<feColorMatrix result="color2" values="0 0 -1 0 1 0 -1 0 0 1 -1 0 0 0 1 -0.21 -0.72 -0.07 2 0 "/>
</filter>
<filter id="c" x="0" y="0" width="1" height="1" color-interpolation-filters="sRGB">
<feColorMatrix result="fbSourceGraphic" values="0 0 -1 0 1 0 -1 0 0 1 -1 0 0 0 1 -0.21 -0.72 -0.07 2 0 "/>
<feColorMatrix in="fbSourceGraphic" result="fbSourceGraphicAlpha" values="0 0 0 -1 0 0 0 0 -1 0 0 0 0 -1 0 0 0 0 1 0"/>
<feColorMatrix in="fbSourceGraphic" result="color2" values="0 0 -1 0 1 0 -1 0 0 1 -1 0 0 0 1 -0.21 -0.72 -0.07 2 0 "/>
</filter>
<filter id="b" x="0" y="0" width="1" height="1" color-interpolation-filters="sRGB">
<feColorMatrix result="color2" values="0 0 -1 0 1 0 -1 0 0 1 -1 0 0 0 1 -0.21 -0.72 -0.07 2 0 "/>
</filter>
<filter id="a" x="-.024903" y="-.02316" width="1.0498" height="1.0463" color-interpolation-filters="sRGB">
<feGaussianBlur stdDeviation="2.767189"/>
</filter>
</defs>
<path transform="matrix(.75 0 0 .75 -21.079 .040087)" d="m209.38 6.5996c-1.6835 0.055417-3.3455 0.30302-4.8555 0.67969-7.5333 0.64-13.293 6.0404-19.506 9.707-16.44 10.013-35.813 12.308-54.213 16.574-42.76 6.28-81.133 42.119-82.84 86.426-4.2533 19.853 15.746 30.707 26.652 42.801-11.653 18.76-30.254 34.092-39.867 54.639 0.46667 23.32 7.4947 46.068 12.361 68.814 1.2133 8.6667 13.425 4.9459 19.252 5.5859 10.667-10.467 7.8545-28.052 13.508-41.266 4.1067-13.027-10.388-18.88-15.881-27.707 5.3467-3.2 11.681-4.2933 17.334-6.9199 2.04-0.97333 5.7993-2.4938 5.666 1.2129 7.8533 19.453 11.174 40.786 7.9473 61.666-2.0533 6.1333 0.77322 12.601 7.2266 13.828 15.4 4.6933 18.827-15.293 27.094-23.373 15.04-21.16 27.08-44.388 43.16-64.814 1.7867-2.76-0.0676-6.8263 2.3457-9.293 13.013 2.5333 24.693-6.1608 37.293-7.1875-0.48 25.787-24.372 39.214-39.559 56.48-10.893 13.173-28.867 23.614-29.787 42.107 3.6533 8.24 15.346 7.9857 22.186 3.6523 12.16-10.92 23.308-23.227 36.375-33 18.773-14.8 43.386-1.7059 64.119-9.1992 17.093-9.72 24.214-29.654 31.854-46.721 6.6667-11.227 5.467-28.107-4.293-36.707-8.2133 2.3333-6.9613-5.2935-9.3613-9.4668-10.907-6.0267-21.745-12.186-32.785-17.959 4.6133-19.827 7.1718-40.041 11.785-59.867 2.6133-9.9867 6.8271-21.467 0.48047-31-6.6-8.04-18.921-4.5722-27.027-0.87891-8 5.5467-19.079 0.96003-25.266-4.3066 3.4267-9.2533 16.893-16.481 10.906-28.121-2-4.99-7.2541-6.553-12.305-6.3867zm-29.979 81.43c11.969 0.04456 23.921 2.4306 34.949 7.0781 1.28 3.2267-3.6118 2.052-5.3984 3.252-14.333 3.1867-29.28 2.6943-43.693 5.6543 2.0667-4.9733 0.2519-13.401 5.8652-15.641 2.7525-0.24 5.5154-0.35403 8.2773-0.34375zm-50.023 6.3965c5.9867 5.1733 12.721 9.6 18.254 15.307-2.84 17.973 18.146 25.854 32.199 27.867-5.1733 7.2667-23.746 5.3334-21.213 18.387-3.1867 12.227 7.3876 20.347 10.574 30.947-15.547-11.493-32.187-23.214-43.494-39.32 0.25333-9.7733 6.52-18.881 6.3066-28.947 1.2667-8.3067-2.627-16.04-2.627-24.24zm-44.986 24.627c3.48 0.93334 5.373 7.0007 7.6797 10.414-5.0667 0.93333-15.626-7.6674-7.6797-10.414zm191.73 56.801c-6.6133 16.067-13.705 33.839-26.799 45.426-5.6533-6.12-13.094-15.666-13.121-24.879 12.973-6.52 25.255-14.228 38.588-20.055z" filter="url(#a)" stroke-width="1.3333" style="mix-blend-mode:normal"/>
<path transform="matrix(.75 0 0 .75 -21.079 .040087)" d="m209.38 6.5996c-1.6835 0.055417-3.3455 0.30302-4.8555 0.67969-7.5333 0.64-13.293 6.0404-19.506 9.707-16.44 10.013-35.813 12.308-54.213 16.574-42.76 6.28-81.133 42.119-82.84 86.426-4.2533 19.853 15.746 30.707 26.652 42.801-11.653 18.76-30.254 34.092-39.867 54.639 0.46667 23.32 7.4947 46.068 12.361 68.814 1.2133 8.6667 13.425 4.9459 19.252 5.5859 10.667-10.467 7.8545-28.052 13.508-41.266 4.1067-13.027-10.388-18.88-15.881-27.707 5.3467-3.2 11.681-4.2933 17.334-6.9199 2.04-0.97333 5.7993-2.4938 5.666 1.2129 7.8533 19.453 11.174 40.786 7.9473 61.666-2.0533 6.1333 0.77322 12.601 7.2266 13.828 15.4 4.6933 18.827-15.293 27.094-23.373 15.04-21.16 27.08-44.388 43.16-64.814 1.7867-2.76-0.0676-6.8263 2.3457-9.293 13.013 2.5333 24.693-6.1608 37.293-7.1875-0.48 25.787-24.372 39.214-39.559 56.48-10.893 13.173-28.867 23.614-29.787 42.107 3.6533 8.24 15.346 7.9857 22.186 3.6523 12.16-10.92 23.308-23.227 36.375-33 18.773-14.8 43.386-1.7059 64.119-9.1992 17.093-9.72 24.214-29.654 31.854-46.721 6.6667-11.227 5.467-28.107-4.293-36.707-8.2133 2.3333-6.9613-5.2935-9.3613-9.4668-10.907-6.0267-21.745-12.186-32.785-17.959 4.6133-19.827 7.1718-40.041 11.785-59.867 2.6133-9.9867 6.8271-21.467 0.48047-31-6.6-8.04-18.921-4.5722-27.027-0.87891-8 5.5467-19.079 0.96003-25.266-4.3066 3.4267-9.2533 16.893-16.481 10.906-28.121-2-4.99-7.2541-6.553-12.305-6.3867zm-29.979 81.43c11.969 0.04456 23.921 2.4306 34.949 7.0781 1.28 3.2267-3.6118 2.052-5.3984 3.252-14.333 3.1867-29.28 2.6943-43.693 5.6543 2.0667-4.9733 0.2519-13.401 5.8652-15.641 2.7525-0.24 5.5154-0.35403 8.2773-0.34375zm-50.023 6.3965c5.9867 5.1733 12.721 9.6 18.254 15.307-2.84 17.973 18.146 25.854 32.199 27.867-5.1733 7.2667-23.746 5.3334-21.213 18.387-3.1867 12.227 7.3876 20.347 10.574 30.947-15.547-11.493-32.187-23.214-43.494-39.32 0.25333-9.7733 6.52-18.881 6.3066-28.947 1.2667-8.3067-2.627-16.04-2.627-24.24zm-44.986 24.627c3.48 0.93334 5.373 7.0007 7.6797 10.414-5.0667 0.93333-15.626-7.6674-7.6797-10.414zm191.73 56.801c-6.6133 16.067-13.705 33.839-26.799 45.426-5.6533-6.12-13.094-15.666-13.121-24.879 12.973-6.52 25.255-14.228 38.588-20.055z" filter="url(#b)" stroke-width="1.3333"/>
<path transform="matrix(.75 0 0 .75 -21.079 .040087)" d="m209 14.52c-3.4097 0.17564-7.1063 1.8355-9.7988 3.373-21.493 17.893-50.746 18.308-76.293 26.281-37.32 9.1733-70.133 44.747-66.506 84.693 5.68 11.933 16.52 20.052 26.174 28.559 12.787 0.08 14.128 6.0428 38.318-1.1719-11.307-11.64 4.5744-26.801 3.1211-40.201 1.2667-10.867-6.4662-19.998-6.5195-30.398 3.2533-2.2 7.8001-6.9739 11.467-2.5605 9.7867 6.0267 17.813 17.267 28.227 20.854 0.94667-8.4933 3.5458-16.695 4.8125-25.135 12.68 0.25333 25.266 1.4934 37.893 2.6934 10.693 2.9733 28.907 6.2682 30.707 19.521-24.667 8.1467-50.72 8.8924-76 12.426 12.84 18.96 39.028 16.587 58.814 21.494-14.28 8.8267-32.641 10.159-46.975 19.652 31.105 6.1544 62.094 9.0314 92.307-2.6797-5.4-4.4267-12.213-6.6527-18.439-9.666 7.36-28.453 10.761-57.773 18.334-86.146-3.7733-13.773-18.308-2.2414-26.814 0.94531-13.173 0.34667-24.293-7.1318-34.52-14.479 5.8133-8.5867 13-16.214 18.52-25.014-1.6975-2.415-4.1761-3.1776-6.8281-3.041zm-124.61 104.53c3.48 0.93334 5.373 7.0007 7.6797 10.414-5.0667 0.93333-15.626-7.6674-7.6797-10.414z" fill="#c30000" filter="url(#c)" stroke-width="1.3333"/>
<path transform="matrix(.75 0 0 .75 -21.079 .040087)" d="m86.414 104.01c-5.7733 5.2-12.121 10.039-17.121 15.973 4.9333 14.56 21.574 22.947 35.961 15.773-2.32-11.76-13.6-20.959-18.84-31.746zm-2.0273 15.039c3.48 0.93334 5.373 7.0007 7.6797 10.414-5.0667 0.93333-15.626-7.6674-7.6797-10.414z" filter="url(#d)" stroke-width="1.3333"/>
<path d="m103.75 115.99c23.08-0.3 46.2-0.55 69.23-2.01 4.89 2.85 13.8 4.23 14.77 9.72-14.51 6.09-28.64 13.57-41.62 22.45 4.63 9.61 10.25 18.67 16.25 27.47 1.15 0.78 2.6 2.16 3.88 0.78 16.21-10.89 19.91-31.44 30.39-46.47 5.54 12.95-3.26 24.33-8.02 35.85-4.49 6.21-7.51 15.11-15.85 17.03-12.32 2.94-25.17-2.58-37.21 1.85-14.43 4.91-23.53 17.79-34.3 27.69-1.84 3.36-6.04 3.24-9.41 3.73 0.22-4.11 3.18-7.39 6.13-9.97 12.2-13.79 25.28-26.7 38.5-39.49 5.94-9.28 7.83-20.7 8.39-31.58-10.92 0.59-21.3 5.05-31.57 7.87-2.7-8.21-10.76-17.31-9.56-24.92z" fill="#ffff68" filter="url(#e)"/>
<path d="m40.851 118.11c9.59 0.06 19.15-0.8 28.74-0.88 9.5 12 22.08 20.96 34.22 30.07-14.28 18.7-24.88 39.86-38.98 58.66-2.12 3.37-3.87 8.71-8.83 8.12 3.14-21.12 0.42-42.95-9.26-62.07-10.46 4.37-21.21 8-31.72 12.25 4.89 7.41 12.17 12.93 18.6 18.92-2.73 8.58-4.89 17.33-6.46 26.18 0.3 4.19-4.68 6.1-6.95 2.39-3.76-15.38-6.76-30.98-9.9-46.5 9.64-14.97 21.9-27.93 33.29-41.54 1.61-2.57-1.33-3.95-2.75-5.6z" fill="#ffff68" filter="url(#f)"/>
</svg>
