<?xml version="1.0" encoding="UTF-8" standalone="no"?>
<svg
   inkscape:version="1.1.1 (3bf5ae0d25, 2021-09-20)"
   sodipodi:docname="Hello Fangaming Emblem.svg"
   id="svg163"
   version="1.1"
   viewBox="0 0 209.97208 225.03005"
   height="225.03004pt"
   width="209.97208pt"
   xmlns:inkscape="http://www.inkscape.org/namespaces/inkscape"
   xmlns:sodipodi="http://sodipodi.sourceforge.net/DTD/sodipodi-0.dtd"
   xmlns="http://www.w3.org/2000/svg"
   xmlns:svg="http://www.w3.org/2000/svg">
  <defs
     id="defs167">
    <filter
       style="color-interpolation-filters:sRGB"
       inkscape:label="Invert"
       id="filter2245"
       x="0"
       y="0"
       width="1"
       height="1">
      <feColorMatrix
         values="0 0 -1 0 1 0 -1 0 0 1 -1 0 0 0 1 -0.21 -0.72 -0.07 2 0 "
         result="color2"
         id="feColorMatrix2243" />
    </filter>
    <filter
       style="color-interpolation-filters:sRGB"
       inkscape:label="Invert"
       id="filter2249"
       x="0"
       y="0"
       width="1"
       height="1">
      <feColorMatrix
         values="0 0 -1 0 1 0 -1 0 0 1 -1 0 0 0 1 -0.21 -0.72 -0.07 2 0 "
         result="color2"
         id="feColorMatrix2247" />
    </filter>
    <filter
       style="color-interpolation-filters:sRGB"
       inkscape:label="Invert"
       id="filter2257"
       x="0"
       y="0"
       width="1"
       height="1">
      <feColorMatrix
         values="0 0 -1 0 1 0 -1 0 0 1 -1 0 0 0 1 -0.21 -0.72 -0.07 2 0 "
         result="color2"
         id="feColorMatrix2255" />
    </filter>
    <filter
       style="color-interpolation-filters:sRGB"
       inkscape:label="Invert"
       id="filter2261"
       x="0"
       y="0"
       width="1"
       height="1">
      <feColorMatrix
         values="0 0 -1 0 1 0 -1 0 0 1 -1 0 0 0 1 -0.21 -0.72 -0.07 2 0 "
         result="color2"
         id="feColorMatrix2259" />
    </filter>
    <filter
       style="color-interpolation-filters:sRGB"
       inkscape:label="Invert"
       id="filter2269"
       x="0"
       y="0"
       width="1"
       height="1">
      <feColorMatrix
         values="0 0 -1 0 1 0 -1 0 0 1 -1 0 0 0 1 -0.21 -0.72 -0.07 2 0 "
         result="color2"
         id="feColorMatrix2267" />
    </filter>
    <filter
       style="color-interpolation-filters:sRGB"
       inkscape:label="Colorize"
       id="filter2273"
       x="0"
       y="0"
       width="1"
       height="1">
      <feColorMatrix
         values="0 0 -1 0 1 0 -1 0 0 1 -1 0 0 0 1 -0.21 -0.72 -0.07 2 0 "
         result="fbSourceGraphic"
         id="feColorMatrix2271" />
      <feColorMatrix
         result="fbSourceGraphicAlpha"
         in="fbSourceGraphic"
         values="0 0 0 -1 0 0 0 0 -1 0 0 0 0 -1 0 0 0 0 1 0"
         id="feColorMatrix26197" />
      <feComposite
         in2="fbSourceGraphic"
         id="feComposite26199"
         operator="arithmetic"
         k1="0"
         k2="0"
         result="composite1"
         in="fbSourceGraphic"
         k3="0"
         k4="0" />
      <feColorMatrix
         id="feColorMatrix26201"
         in="composite1"
         values="1"
         type="saturate"
         result="colormatrix1" />
      <feFlood
         id="feFlood26203"
         flood-opacity="1"
         flood-color="rgb(151,0,0)"
         result="flood1" />
      <feBlend
         in2="colormatrix1"
         id="feBlend26205"
         in="flood1"
         mode="normal"
         result="blend1" />
      <feBlend
         in2="blend1"
         id="feBlend26207"
         mode="normal"
         result="blend2" />
      <feColorMatrix
         id="feColorMatrix26209"
         in="blend2"
         values="1"
         type="saturate"
         result="colormatrix2" />
      <feComposite
         in2="fbSourceGraphic"
         id="feComposite26211"
         in="colormatrix2"
         operator="in"
         result="composite2" />
    </filter>
    <filter
       style="color-interpolation-filters:sRGB"
       inkscape:label="Invert"
       id="filter2277"
       x="0"
       y="0"
       width="1"
       height="1">
      <feColorMatrix
         values="0 0 -1 0 1 0 -1 0 0 1 -1 0 0 0 1 -0.21 -0.72 -0.07 2 0 "
         result="color2"
         id="feColorMatrix2275" />
    </filter>
    <filter
       style="color-interpolation-filters:sRGB"
       inkscape:label="Invert"
       id="filter2281"
       x="0"
       y="0"
       width="1"
       height="1">
      <feColorMatrix
         values="0 0 -1 0 1 0 -1 0 0 1 -1 0 0 0 1 -0.21 -0.72 -0.07 2 0 "
         result="color2"
         id="feColorMatrix2279" />
    </filter>
    <filter
       style="color-interpolation-filters:sRGB"
       inkscape:label="Invert"
       id="filter2285"
       x="0"
       y="0"
       width="1"
       height="1">
      <feColorMatrix
         values="0 0 -1 0 1 0 -1 0 0 1 -1 0 0 0 1 -0.21 -0.72 -0.07 2 0 "
         result="color2"
         id="feColorMatrix2283" />
    </filter>
    <filter
       style="color-interpolation-filters:sRGB"
       inkscape:label="Colorize"
       id="filter2289"
       x="0"
       y="0"
       width="1"
       height="1">
      <feColorMatrix
         values="0 0 -1 0 1 0 -1 0 0 1 -1 0 0 0 1 -0.21 -0.72 -0.07 2 0 "
         result="fbSourceGraphic"
         id="feColorMatrix2287" />
      <feColorMatrix
         result="fbSourceGraphicAlpha"
         in="fbSourceGraphic"
         values="0 0 0 -1 0 0 0 0 -1 0 0 0 0 -1 0 0 0 0 1 0"
         id="feColorMatrix29764" />
      <feComposite
         in2="fbSourceGraphic"
         id="feComposite29766"
         operator="arithmetic"
         k1="0"
         k2="0"
         result="composite1"
         in="fbSourceGraphic"
         k3="0"
         k4="0" />
      <feColorMatrix
         id="feColorMatrix29768"
         in="composite1"
         values="1"
         type="saturate"
         result="colormatrix1" />
      <feFlood
         id="feFlood29770"
         flood-opacity="1"
         flood-color="rgb(151,0,0)"
         result="flood1" />
      <feBlend
         in2="colormatrix1"
         id="feBlend29772"
         in="flood1"
         mode="normal"
         result="blend1" />
      <feBlend
         in2="blend1"
         id="feBlend29774"
         mode="normal"
         result="blend2" />
      <feColorMatrix
         id="feColorMatrix29776"
         in="blend2"
         values="1"
         type="saturate"
         result="colormatrix2" />
      <feComposite
         in2="fbSourceGraphic"
         id="feComposite29778"
         in="colormatrix2"
         operator="in"
         result="composite2" />
    </filter>
    <filter
       style="color-interpolation-filters:sRGB"
       inkscape:label="Invert"
       id="filter2293"
       x="0"
       y="0"
       width="1"
       height="1">
      <feColorMatrix
         values="0 0 -1 0 1 0 -1 0 0 1 -1 0 0 0 1 -0.21 -0.72 -0.07 2 0 "
         result="color2"
         id="feColorMatrix2291" />
    </filter>
    <filter
       style="color-interpolation-filters:sRGB"
       inkscape:label="Invert"
       id="filter2297"
       x="0"
       y="0"
       width="1"
       height="1">
      <feColorMatrix
         values="0 0 -1 0 1 0 -1 0 0 1 -1 0 0 0 1 -0.21 -0.72 -0.07 2 0 "
         result="color2"
         id="feColorMatrix2295" />
    </filter>
    <filter
       style="color-interpolation-filters:sRGB"
       inkscape:label="Invert"
       id="filter2305"
       x="0"
       y="0"
       width="1"
       height="1">
      <feColorMatrix
         values="0 0 -1 0 1 0 -1 0 0 1 -1 0 0 0 1 -0.21 -0.72 -0.07 2 0 "
         result="color2"
         id="feColorMatrix2303" />
    </filter>
    <filter
       style="color-interpolation-filters:sRGB"
       inkscape:label="Invert"
       id="filter2309"
       x="0"
       y="0"
       width="1"
       height="1">
      <feColorMatrix
         values="0 0 -1 0 1 0 -1 0 0 1 -1 0 0 0 1 -0.21 -0.72 -0.07 2 0 "
         result="color2"
         id="feColorMatrix2307" />
    </filter>
    <filter
       style="color-interpolation-filters:sRGB"
       inkscape:label="Invert"
       id="filter2313"
       x="0"
       y="0"
       width="1"
       height="1">
      <feColorMatrix
         values="0 0 -1 0 1 0 -1 0 0 1 -1 0 0 0 1 -0.21 -0.72 -0.07 2 0 "
         result="color2"
         id="feColorMatrix2311" />
    </filter>
    <filter
       style="color-interpolation-filters:sRGB"
       inkscape:label="Invert"
       id="filter2317"
       x="0"
       y="0"
       width="1"
       height="1">
      <feColorMatrix
         values="0 0 -1 0 1 0 -1 0 0 1 -1 0 0 0 1 -0.21 -0.72 -0.07 2 0 "
         result="color2"
         id="feColorMatrix2315" />
    </filter>
    <filter
       style="color-interpolation-filters:sRGB"
       inkscape:label="Invert"
       id="filter2321"
       x="0"
       y="0"
       width="1"
       height="1">
      <feColorMatrix
         values="0 0 -1 0 1 0 -1 0 0 1 -1 0 0 0 1 -0.21 -0.72 -0.07 2 0 "
         result="color2"
         id="feColorMatrix2319" />
    </filter>
    <filter
       style="color-interpolation-filters:sRGB"
       inkscape:label="Invert"
       id="filter2325"
       x="0"
       y="0"
       width="1"
       height="1">
      <feColorMatrix
         values="0 0 -1 0 1 0 -1 0 0 1 -1 0 0 0 1 -0.21 -0.72 -0.07 2 0 "
         result="color2"
         id="feColorMatrix2323" />
    </filter>
    <filter
       style="color-interpolation-filters:sRGB"
       inkscape:label="Invert"
       id="filter2329"
       x="0"
       y="0"
       width="1"
       height="1">
      <feColorMatrix
         values="0 0 -1 0 1 0 -1 0 0 1 -1 0 0 0 1 -0.21 -0.72 -0.07 2 0 "
         result="color2"
         id="feColorMatrix2327" />
    </filter>
    <filter
       style="color-interpolation-filters:sRGB"
       inkscape:label="Invert"
       id="filter2345"
       x="0"
       y="0"
       width="1"
       height="1">
      <feColorMatrix
         values="0 0 -1 0 1 0 -1 0 0 1 -1 0 0 0 1 -0.21 -0.72 -0.07 2 0 "
         result="color2"
         id="feColorMatrix2343" />
    </filter>
    <filter
       style="color-interpolation-filters:sRGB"
       inkscape:label="Invert"
       id="filter2349"
       x="0"
       y="0"
       width="1"
       height="1">
      <feColorMatrix
         values="0 0 -1 0 1 0 -1 0 0 1 -1 0 0 0 1 -0.21 -0.72 -0.07 2 0 "
         result="color2"
         id="feColorMatrix2347" />
    </filter>
    <filter
       style="color-interpolation-filters:sRGB"
       inkscape:label="Invert"
       id="filter2353"
       x="0"
       y="0"
       width="1"
       height="1">
      <feColorMatrix
         values="0 0 -1 0 1 0 -1 0 0 1 -1 0 0 0 1 -0.21 -0.72 -0.07 2 0 "
         result="color2"
         id="feColorMatrix2351" />
    </filter>
    <filter
       style="color-interpolation-filters:sRGB"
       inkscape:label="Colorize"
       id="filter2357"
       x="0"
       y="0"
       width="1"
       height="1">
      <feColorMatrix
         values="0 0 -1 0 1 0 -1 0 0 1 -1 0 0 0 1 -0.21 -0.72 -0.07 2 0 "
         result="fbSourceGraphic"
         id="feColorMatrix2355" />
      <feColorMatrix
         result="fbSourceGraphicAlpha"
         in="fbSourceGraphic"
         values="0 0 0 -1 0 0 0 0 -1 0 0 0 0 -1 0 0 0 0 1 0"
         id="feColorMatrix17533" />
      <feComposite
         in2="fbSourceGraphic"
         id="feComposite17535"
         operator="arithmetic"
         k1="0"
         k2="0"
         result="composite1"
         in="fbSourceGraphic"
         k3="0"
         k4="0" />
      <feColorMatrix
         id="feColorMatrix17537"
         in="composite1"
         values="1"
         type="saturate"
         result="colormatrix1" />
      <feFlood
         id="feFlood17539"
         flood-opacity="1"
         flood-color="rgb(195,0,0)"
         result="flood1" />
      <feBlend
         in2="colormatrix1"
         id="feBlend17541"
         in="flood1"
         mode="normal"
         result="blend1" />
      <feBlend
         in2="blend1"
         id="feBlend17543"
         mode="normal"
         result="blend2" />
      <feColorMatrix
         id="feColorMatrix17545"
         in="blend2"
         values="1"
         type="saturate"
         result="colormatrix2" />
      <feComposite
         in2="fbSourceGraphic"
         id="feComposite17547"
         in="colormatrix2"
         operator="in"
         result="composite2" />
    </filter>
    <filter
       style="color-interpolation-filters:sRGB"
       inkscape:label="Invert"
       id="filter2361"
       x="0"
       y="0"
       width="1"
       height="1">
      <feColorMatrix
         values="0 0 -1 0 1 0 -1 0 0 1 -1 0 0 0 1 -0.21 -0.72 -0.07 2 0 "
         result="color2"
         id="feColorMatrix2359" />
    </filter>
    <filter
       style="color-interpolation-filters:sRGB"
       inkscape:label="Invert"
       id="filter2365"
       x="0"
       y="0"
       width="1"
       height="1">
      <feColorMatrix
         values="0 0 -1 0 1 0 -1 0 0 1 -1 0 0 0 1 -0.21 -0.72 -0.07 2 0 "
         result="color2"
         id="feColorMatrix2363" />
    </filter>
    <filter
       style="color-interpolation-filters:sRGB"
       inkscape:label="Invert"
       id="filter2369"
       x="0"
       y="0"
       width="1"
       height="1">
      <feColorMatrix
         values="0 0 -1 0 1 0 -1 0 0 1 -1 0 0 0 1 -0.21 -0.72 -0.07 2 0 "
         result="color2"
         id="feColorMatrix2367" />
    </filter>
    <filter
       style="color-interpolation-filters:sRGB"
       inkscape:label="Invert"
       id="filter2373"
       x="0"
       y="0"
       width="1"
       height="1">
      <feColorMatrix
         values="0 0 -1 0 1 0 -1 0 0 1 -1 0 0 0 1 -0.21 -0.72 -0.07 2 0 "
         result="color2"
         id="feColorMatrix2371" />
    </filter>
    <filter
       style="color-interpolation-filters:sRGB"
       inkscape:label="Invert"
       id="filter2377"
       x="0"
       y="0"
       width="1"
       height="1">
      <feColorMatrix
         values="0 0 -1 0 1 0 -1 0 0 1 -1 0 0 0 1 -0.21 -0.72 -0.07 2 0 "
         result="fbSourceGraphic"
         id="feColorMatrix2375" />
      <feColorMatrix
         result="fbSourceGraphicAlpha"
         in="fbSourceGraphic"
         values="0 0 0 -1 0 0 0 0 -1 0 0 0 0 -1 0 0 0 0 1 0"
         id="feColorMatrix5085" />
      <feColorMatrix
         id="feColorMatrix5087"
         values="0 0 -1 0 1 0 -1 0 0 1 -1 0 0 0 1 -0.21 -0.72 -0.07 2 0 "
         result="color2"
         in="fbSourceGraphic" />
    </filter>
    <filter
       style="color-interpolation-filters:sRGB"
       inkscape:label="Invert"
       id="filter2381"
       x="0"
       y="0"
       width="1"
       height="1">
      <feColorMatrix
         values="0 0 -1 0 1 0 -1 0 0 1 -1 0 0 0 1 -0.21 -0.72 -0.07 2 0 "
         result="color2"
         id="feColorMatrix2379" />
    </filter>
    <filter
       style="color-interpolation-filters:sRGB"
       inkscape:label="Invert"
       id="filter2385"
       x="0"
       y="0"
       width="1"
       height="1">
      <feColorMatrix
         values="0 0 -1 0 1 0 -1 0 0 1 -1 0 0 0 1 -0.21 -0.72 -0.07 2 0 "
         result="color2"
         id="feColorMatrix2383" />
    </filter>
    <filter
       inkscape:collect="always"
       style="color-interpolation-filters:sRGB"
       id="filter30819"
       x="-0.024903433"
       y="-0.023159821"
       width="1.0498069"
       height="1.0463196">
      <feGaussianBlur
         inkscape:collect="always"
         stdDeviation="2.767189"
         id="feGaussianBlur30821" />
    </filter>
  </defs>
  <sodipodi:namedview
     id="namedview165"
     pagecolor="#505050"
     bordercolor="#eeeeee"
     borderopacity="1"
     inkscape:pageshadow="0"
     inkscape:pageopacity="0"
     inkscape:pagecheckerboard="true"
     inkscape:document-units="pt"
     showgrid="false"
     inkscape:zoom="1.6003125"
     inkscape:cx="211.52119"
     inkscape:cy="164.03046"
     inkscape:window-width="1920"
     inkscape:window-height="1027"
     inkscape:window-x="-8"
     inkscape:window-y="-8"
     inkscape:window-maximized="1"
     inkscape:current-layer="svg163"
     fit-margin-top="0"
     fit-margin-left="0"
     fit-margin-right="0"
     fit-margin-bottom="0" />
  <path
     id="path30756"
     style="mix-blend-mode:normal;stroke-width:1.33333;filter:url(#filter30819)"
     d="m 209.375,6.5996094 c -1.68354,0.055417 -3.34547,0.3030208 -4.85547,0.6796875 -7.53333,0.64 -13.29252,6.0403641 -19.50586,9.7070311 -16.44,10.013333 -35.81289,12.307552 -54.21289,16.574219 -42.759996,6.28 -81.133179,42.119108 -82.839842,86.425783 -4.253334,19.85333 15.745677,30.70745 26.652343,42.80078 -11.653333,18.76 -30.253854,34.092 -39.867187,54.63867 0.466666,23.32 7.494661,46.06779 12.361328,68.81445 1.213333,8.66667 13.425286,4.94594 19.251953,5.58594 10.666667,-10.46666 7.854478,-28.05229 13.507813,-41.26562 4.106666,-13.02667 -10.387527,-18.88037 -15.88086,-27.70703 5.346667,-3.2 11.680654,-4.29326 17.333984,-6.91993 2.040003,-0.97333 5.799349,-2.49377 5.666016,1.21289 7.853333,19.45334 11.173932,40.78602 7.947266,61.66602 -2.053334,6.13333 0.773217,12.60146 7.226566,13.82812 15.4,4.69334 18.82708,-15.29304 27.09375,-23.37304 15.04,-21.16 27.08015,-44.38779 43.16015,-64.81446 1.78667,-2.76 -0.0676,-6.8263 2.34571,-9.29296 13.01333,2.53333 24.69296,-6.16084 37.29296,-7.1875 -0.48,25.78666 -24.37192,39.2138 -39.55859,56.48046 -10.89333,13.17334 -28.86711,23.61409 -29.78711,42.10743 3.65333,8.24 15.34555,7.98567 22.18555,3.65234 12.16,-10.92 23.30833,-23.22667 36.375,-33 18.77333,-14.8 43.38581,-1.70588 64.11914,-9.19922 17.09333,-9.72 24.21351,-29.65403 31.85351,-46.7207 6.66667,-11.22667 5.46704,-28.10703 -4.29296,-36.70703 -8.21334,2.33333 -6.96133,-5.29347 -9.36133,-9.4668 -10.90667,-6.02667 -21.74516,-12.18565 -32.78516,-17.95898 4.61333,-19.82667 7.17182,-40.040525 11.78516,-59.867191 2.61333,-9.986667 6.82713,-21.466667 0.48047,-31 -6.6,-8.04 -18.92068,-4.57224 -27.02735,-0.878907 -8,5.546667 -19.07896,0.960027 -25.26562,-4.30664 3.42666,-9.253333 16.89291,-16.481094 10.90625,-28.121094 -2,-4.9899996 -7.25407,-6.5529686 -12.30469,-6.3867186 z M 179.39648,88.029297 c 11.96851,0.04456 23.92089,2.430625 34.94922,7.078125 1.28,3.226667 -3.61177,2.051953 -5.39843,3.251953 -14.33334,3.186665 -29.28003,2.694295 -43.69336,5.654295 2.06666,-4.973327 0.2519,-13.400623 5.86523,-15.640623 2.7525,-0.24 5.51538,-0.354033 8.27734,-0.34375 z m -50.02343,6.396484 c 5.98666,5.173334 12.72057,9.599979 18.2539,15.306639 -2.84,17.97334 18.14589,25.85386 32.19922,27.86719 -5.17333,7.26667 -23.74622,5.33338 -21.21289,18.38672 -3.18667,12.22666 7.38755,20.34726 10.57422,30.94726 -15.54667,-11.49333 -32.18747,-23.21364 -43.49414,-39.32031 0.25333,-9.77333 6.51997,-18.8806 6.30664,-28.94726 1.26667,-8.30667 -2.62695,-16.04024 -2.62695,-24.240239 z M 84.386719,119.05273 c 3.48,0.93334 5.373021,7.00073 7.679687,10.41407 -5.066666,0.93333 -15.626354,-7.6674 -7.679687,-10.41407 z m 191.732421,56.80079 c -6.61333,16.06666 -13.70549,33.83911 -26.79883,45.42578 -5.65333,-6.12 -13.09442,-15.66558 -13.12109,-24.87891 12.97333,-6.52 25.25456,-14.22802 38.58789,-20.05469 z"
     transform="matrix(0.75,0,0,0.75,-21.07863,0.04008719)" />
  <path
     id="path91"
     style="stroke-width:1.33333;filter:url(#filter2385)"
     d="m 209.375,6.5996094 c -1.68354,0.055417 -3.34547,0.3030208 -4.85547,0.6796875 -7.53333,0.64 -13.29252,6.0403641 -19.50586,9.7070311 -16.44,10.013333 -35.81289,12.307552 -54.21289,16.574219 -42.759996,6.28 -81.133179,42.119108 -82.839842,86.425783 -4.253334,19.85333 15.745677,30.70745 26.652343,42.80078 -11.653333,18.76 -30.253854,34.092 -39.867187,54.63867 0.466666,23.32 7.494661,46.06779 12.361328,68.81445 1.213333,8.66667 13.425286,4.94594 19.251953,5.58594 10.666667,-10.46666 7.854478,-28.05229 13.507813,-41.26562 4.106666,-13.02667 -10.387527,-18.88037 -15.88086,-27.70703 5.346667,-3.2 11.680654,-4.29326 17.333984,-6.91993 2.040003,-0.97333 5.799349,-2.49377 5.666016,1.21289 7.853333,19.45334 11.173932,40.78602 7.947266,61.66602 -2.053334,6.13333 0.773217,12.60146 7.226566,13.82812 15.4,4.69334 18.82708,-15.29304 27.09375,-23.37304 15.04,-21.16 27.08015,-44.38779 43.16015,-64.81446 1.78667,-2.76 -0.0676,-6.8263 2.34571,-9.29296 13.01333,2.53333 24.69296,-6.16084 37.29296,-7.1875 -0.48,25.78666 -24.37192,39.2138 -39.55859,56.48046 -10.89333,13.17334 -28.86711,23.61409 -29.78711,42.10743 3.65333,8.24 15.34555,7.98567 22.18555,3.65234 12.16,-10.92 23.30833,-23.22667 36.375,-33 18.77333,-14.8 43.38581,-1.70588 64.11914,-9.19922 17.09333,-9.72 24.21351,-29.65403 31.85351,-46.7207 6.66667,-11.22667 5.46704,-28.10703 -4.29296,-36.70703 -8.21334,2.33333 -6.96133,-5.29347 -9.36133,-9.4668 -10.90667,-6.02667 -21.74516,-12.18565 -32.78516,-17.95898 4.61333,-19.82667 7.17182,-40.040525 11.78516,-59.867191 2.61333,-9.986667 6.82713,-21.466667 0.48047,-31 -6.6,-8.04 -18.92068,-4.57224 -27.02735,-0.878907 -8,5.546667 -19.07896,0.960027 -25.26562,-4.30664 3.42666,-9.253333 16.89291,-16.481094 10.90625,-28.121094 -2,-4.9899996 -7.25407,-6.5529686 -12.30469,-6.3867186 z M 179.39648,88.029297 c 11.96851,0.04456 23.92089,2.430625 34.94922,7.078125 1.28,3.226667 -3.61177,2.051953 -5.39843,3.251953 -14.33334,3.186665 -29.28003,2.694295 -43.69336,5.654295 2.06666,-4.973327 0.2519,-13.400623 5.86523,-15.640623 2.7525,-0.24 5.51538,-0.354033 8.27734,-0.34375 z m -50.02343,6.396484 c 5.98666,5.173334 12.72057,9.599979 18.2539,15.306639 -2.84,17.97334 18.14589,25.85386 32.19922,27.86719 -5.17333,7.26667 -23.74622,5.33338 -21.21289,18.38672 -3.18667,12.22666 7.38755,20.34726 10.57422,30.94726 -15.54667,-11.49333 -32.18747,-23.21364 -43.49414,-39.32031 0.25333,-9.77333 6.51997,-18.8806 6.30664,-28.94726 1.26667,-8.30667 -2.62695,-16.04024 -2.62695,-24.240239 z M 84.386719,119.05273 c 3.48,0.93334 5.373021,7.00073 7.679687,10.41407 -5.066666,0.93333 -15.626354,-7.6674 -7.679687,-10.41407 z m 191.732421,56.80079 c -6.61333,16.06666 -13.70549,33.83911 -26.79883,45.42578 -5.65333,-6.12 -13.09442,-15.66558 -13.12109,-24.87891 12.97333,-6.52 25.25456,-14.22802 38.58789,-20.05469 z"
     transform="matrix(0.75,0,0,0.75,-21.07863,0.04008719)" />
  <path
     id="path95"
     style="fill:#c30000;fill-opacity:1;stroke-width:1.33333;filter:url(#filter2377)"
     d="m 208.99805,14.519531 c -3.40969,0.175635 -7.10633,1.835547 -9.79883,3.373047 -21.49333,17.893333 -50.7463,18.307917 -76.29297,26.28125 -37.32,9.173333 -70.132526,44.746693 -66.505859,84.693362 5.68,11.93333 16.520494,20.05192 26.173828,28.55859 12.786666,0.08 14.12767,6.04278 38.318361,-1.17187 -11.30667,-11.64 4.57443,-26.80118 3.12109,-40.20118 1.26667,-10.86666 -6.4662,-19.998433 -6.51953,-30.398433 3.25333,-2.2 7.80013,-6.97388 11.4668,-2.560547 9.78666,6.026667 17.81323,17.26685 28.22656,20.85352 0.94667,-8.493338 3.54583,-16.69477 4.8125,-25.13477 12.68,0.253333 25.26591,1.493359 37.89258,2.693359 10.69333,2.973334 28.90703,6.268151 30.70703,19.521481 -24.66667,8.14667 -50.72,8.89245 -76,12.42578 12.84,18.96 39.02779,16.58748 58.81445,21.49415 -14.28,8.82666 -32.64127,10.15901 -46.97461,19.65234 31.1052,6.15441 62.09438,9.03145 92.30664,-2.67969 -5.4,-4.42666 -12.21278,-6.65268 -18.43945,-9.66601 7.36,-28.45334 10.76065,-57.773155 18.33398,-86.146488 -3.77333,-13.773333 -18.30778,-2.241354 -26.81445,0.945312 -13.17333,0.346667 -24.29286,-7.131849 -34.51953,-14.478515 5.81333,-8.586667 12.99953,-16.213672 18.51953,-25.013672 -1.6975,-2.415 -4.17614,-3.177621 -6.82812,-3.041016 z M 84.386719,119.05273 c 3.48,0.93334 5.373021,7.00073 7.679687,10.41407 -5.066666,0.93333 -15.626354,-7.6674 -7.679687,-10.41407 z"
     transform="matrix(0.75,0,0,0.75,-21.07863,0.04008719)" />
  <path
     id="path119"
     style="stroke-width:1.33333;filter:url(#filter2329)"
     d="m 86.414062,104.01367 c -5.773333,5.2 -12.121093,10.03932 -17.121093,15.97266 4.933333,14.56 21.574271,22.94677 35.960941,15.77344 -2.32,-11.76 -13.599848,-20.95943 -18.839848,-31.7461 z m -2.027343,15.03906 c 3.48,0.93334 5.373021,7.00073 7.679687,10.41407 -5.066666,0.93333 -15.626354,-7.6674 -7.679687,-10.41407 z"
     transform="matrix(0.75,0,0,0.75,-21.07863,0.04008719)" />
  <path
     fill="#ffff68"
     d="m 103.75137,115.99009 c 23.08,-0.3 46.2,-0.55 69.23,-2.01 4.89,2.85 13.8,4.23 14.77,9.72 -14.51,6.09 -28.64,13.57 -41.62,22.45 4.63,9.61 10.25,18.67 16.25,27.47 1.15,0.78 2.6,2.16 3.88,0.78 16.21,-10.89 19.91,-31.44 30.39,-46.47 5.54,12.95 -3.26,24.33 -8.02,35.85 -4.49,6.21 -7.51,15.11 -15.85,17.03 -12.32,2.94 -25.17,-2.58 -37.21,1.85 -14.43,4.91 -23.53,17.79 -34.3,27.69 -1.84,3.36 -6.04,3.24 -9.41,3.73 0.22,-4.11 3.18,-7.39 6.13,-9.97 12.2,-13.79 25.28,-26.7 38.5,-39.49 5.94,-9.28 7.83,-20.7 8.39,-31.58 -10.92,0.59 -21.3,5.05 -31.57,7.87 -2.7,-8.21 -10.76,-17.31 -9.56,-24.92 z"
     id="path123"
     style="filter:url(#filter2321)" />
  <path
     fill="#ffff68"
     d="m 40.85137,118.11009 c 9.59,0.06 19.15,-0.8 28.74,-0.88 9.5,12 22.08,20.96 34.22,30.07 -14.28,18.7 -24.88,39.86 -38.98,58.66 -2.12,3.37 -3.87,8.71 -8.83,8.12 3.14,-21.12 0.42,-42.95 -9.26,-62.07 -10.46,4.37 -21.21,8 -31.72,12.25 4.89,7.41 12.17,12.93 18.6,18.92 -2.73,8.58 -4.89,17.33 -6.46,26.18 0.3,4.19 -4.68,6.1 -6.95,2.39 -3.76,-15.38 -6.76,-30.98 -9.9,-46.5 9.64,-14.97 21.9,-27.93 33.29,-41.54 1.61,-2.57 -1.33,-3.95 -2.75,-5.6 z"
     id="path125"
     style="filter:url(#filter2317)" />
</svg>
