<?xml version="1.0" encoding="UTF-8" standalone="no"?>
<svg
   inkscape:version="1.1.1 (3bf5ae0d25, 2021-09-20)"
   sodipodi:docname="Hello Fangaming Logo.svg"
   id="svg163"
   version="1.1"
   viewBox="0 0 769.99554 228.29262"
   height="228.29262pt"
   width="769.99554pt"
   xmlns:inkscape="http://www.inkscape.org/namespaces/inkscape"
   xmlns:sodipodi="http://sodipodi.sourceforge.net/DTD/sodipodi-0.dtd"
   xmlns="http://www.w3.org/2000/svg"
   xmlns:svg="http://www.w3.org/2000/svg">
  <defs
     id="defs167">
    <filter
       style="color-interpolation-filters:sRGB"
       inkscape:label="Invert"
       id="filter2245"
       x="0"
       y="0"
       width="1"
       height="1">
      <feColorMatrix
         values="0 0 -1 0 1 0 -1 0 0 1 -1 0 0 0 1 -0.21 -0.72 -0.07 2 0 "
         result="color2"
         id="feColorMatrix2243" />
    </filter>
    <filter
       style="color-interpolation-filters:sRGB"
       inkscape:label="Invert"
       id="filter2249"
       x="0"
       y="0"
       width="1"
       height="1">
      <feColorMatrix
         values="0 0 -1 0 1 0 -1 0 0 1 -1 0 0 0 1 -0.21 -0.72 -0.07 2 0 "
         result="color2"
         id="feColorMatrix2247" />
    </filter>
    <filter
       style="color-interpolation-filters:sRGB"
       inkscape:label="Invert"
       id="filter2257"
       x="0"
       y="0"
       width="1"
       height="1">
      <feColorMatrix
         values="0 0 -1 0 1 0 -1 0 0 1 -1 0 0 0 1 -0.21 -0.72 -0.07 2 0 "
         result="color2"
         id="feColorMatrix2255" />
    </filter>
    <filter
       style="color-interpolation-filters:sRGB"
       inkscape:label="Invert"
       id="filter2261"
       x="0"
       y="0"
       width="1"
       height="1">
      <feColorMatrix
         values="0 0 -1 0 1 0 -1 0 0 1 -1 0 0 0 1 -0.21 -0.72 -0.07 2 0 "
         result="color2"
         id="feColorMatrix2259" />
    </filter>
    <filter
       style="color-interpolation-filters:sRGB"
       inkscape:label="Invert"
       id="filter2269"
       x="0"
       y="0"
       width="1"
       height="1">
      <feColorMatrix
         values="0 0 -1 0 1 0 -1 0 0 1 -1 0 0 0 1 -0.21 -0.72 -0.07 2 0 "
         result="color2"
         id="feColorMatrix2267" />
    </filter>
    <filter
       style="color-interpolation-filters:sRGB"
       inkscape:label="Colorize"
       id="filter2273"
       x="0"
       y="0"
       width="1"
       height="1">
      <feColorMatrix
         values="0 0 -1 0 1 0 -1 0 0 1 -1 0 0 0 1 -0.21 -0.72 -0.07 2 0 "
         result="fbSourceGraphic"
         id="feColorMatrix2271" />
      <feColorMatrix
         result="fbSourceGraphicAlpha"
         in="fbSourceGraphic"
         values="0 0 0 -1 0 0 0 0 -1 0 0 0 0 -1 0 0 0 0 1 0"
         id="feColorMatrix26197" />
      <feComposite
         in2="fbSourceGraphic"
         id="feComposite26199"
         operator="arithmetic"
         k1="0"
         k2="0"
         result="composite1"
         in="fbSourceGraphic"
         k3="0"
         k4="0" />
      <feColorMatrix
         id="feColorMatrix26201"
         in="composite1"
         values="1"
         type="saturate"
         result="colormatrix1" />
      <feFlood
         id="feFlood26203"
         flood-opacity="1"
         flood-color="rgb(151,0,0)"
         result="flood1" />
      <feBlend
         in2="colormatrix1"
         id="feBlend26205"
         in="flood1"
         mode="normal"
         result="blend1" />
      <feBlend
         in2="blend1"
         id="feBlend26207"
         mode="normal"
         result="blend2" />
      <feColorMatrix
         id="feColorMatrix26209"
         in="blend2"
         values="1"
         type="saturate"
         result="colormatrix2" />
      <feComposite
         in2="fbSourceGraphic"
         id="feComposite26211"
         in="colormatrix2"
         operator="in"
         result="composite2" />
    </filter>
    <filter
       style="color-interpolation-filters:sRGB"
       inkscape:label="Invert"
       id="filter2277"
       x="0"
       y="0"
       width="1"
       height="1">
      <feColorMatrix
         values="0 0 -1 0 1 0 -1 0 0 1 -1 0 0 0 1 -0.21 -0.72 -0.07 2 0 "
         result="color2"
         id="feColorMatrix2275" />
    </filter>
    <filter
       style="color-interpolation-filters:sRGB"
       inkscape:label="Invert"
       id="filter2281"
       x="0"
       y="0"
       width="1"
       height="1">
      <feColorMatrix
         values="0 0 -1 0 1 0 -1 0 0 1 -1 0 0 0 1 -0.21 -0.72 -0.07 2 0 "
         result="color2"
         id="feColorMatrix2279" />
    </filter>
    <filter
       style="color-interpolation-filters:sRGB"
       inkscape:label="Invert"
       id="filter2285"
       x="0"
       y="0"
       width="1"
       height="1">
      <feColorMatrix
         values="0 0 -1 0 1 0 -1 0 0 1 -1 0 0 0 1 -0.21 -0.72 -0.07 2 0 "
         result="color2"
         id="feColorMatrix2283" />
    </filter>
    <filter
       style="color-interpolation-filters:sRGB"
       inkscape:label="Colorize"
       id="filter2289"
       x="0"
       y="0"
       width="1"
       height="1">
      <feColorMatrix
         values="0 0 -1 0 1 0 -1 0 0 1 -1 0 0 0 1 -0.21 -0.72 -0.07 2 0 "
         result="fbSourceGraphic"
         id="feColorMatrix2287" />
      <feColorMatrix
         result="fbSourceGraphicAlpha"
         in="fbSourceGraphic"
         values="0 0 0 -1 0 0 0 0 -1 0 0 0 0 -1 0 0 0 0 1 0"
         id="feColorMatrix29764" />
      <feComposite
         in2="fbSourceGraphic"
         id="feComposite29766"
         operator="arithmetic"
         k1="0"
         k2="0"
         result="composite1"
         in="fbSourceGraphic"
         k3="0"
         k4="0" />
      <feColorMatrix
         id="feColorMatrix29768"
         in="composite1"
         values="1"
         type="saturate"
         result="colormatrix1" />
      <feFlood
         id="feFlood29770"
         flood-opacity="1"
         flood-color="rgb(151,0,0)"
         result="flood1" />
      <feBlend
         in2="colormatrix1"
         id="feBlend29772"
         in="flood1"
         mode="normal"
         result="blend1" />
      <feBlend
         in2="blend1"
         id="feBlend29774"
         mode="normal"
         result="blend2" />
      <feColorMatrix
         id="feColorMatrix29776"
         in="blend2"
         values="1"
         type="saturate"
         result="colormatrix2" />
      <feComposite
         in2="fbSourceGraphic"
         id="feComposite29778"
         in="colormatrix2"
         operator="in"
         result="composite2" />
    </filter>
    <filter
       style="color-interpolation-filters:sRGB"
       inkscape:label="Invert"
       id="filter2293"
       x="0"
       y="0"
       width="1"
       height="1">
      <feColorMatrix
         values="0 0 -1 0 1 0 -1 0 0 1 -1 0 0 0 1 -0.21 -0.72 -0.07 2 0 "
         result="color2"
         id="feColorMatrix2291" />
    </filter>
    <filter
       style="color-interpolation-filters:sRGB"
       inkscape:label="Invert"
       id="filter2297"
       x="0"
       y="0"
       width="1"
       height="1">
      <feColorMatrix
         values="0 0 -1 0 1 0 -1 0 0 1 -1 0 0 0 1 -0.21 -0.72 -0.07 2 0 "
         result="color2"
         id="feColorMatrix2295" />
    </filter>
    <filter
       style="color-interpolation-filters:sRGB"
       inkscape:label="Invert"
       id="filter2305"
       x="0"
       y="0"
       width="1"
       height="1">
      <feColorMatrix
         values="0 0 -1 0 1 0 -1 0 0 1 -1 0 0 0 1 -0.21 -0.72 -0.07 2 0 "
         result="color2"
         id="feColorMatrix2303" />
    </filter>
    <filter
       style="color-interpolation-filters:sRGB"
       inkscape:label="Invert"
       id="filter2309"
       x="0"
       y="0"
       width="1"
       height="1">
      <feColorMatrix
         values="0 0 -1 0 1 0 -1 0 0 1 -1 0 0 0 1 -0.21 -0.72 -0.07 2 0 "
         result="color2"
         id="feColorMatrix2307" />
    </filter>
    <filter
       style="color-interpolation-filters:sRGB"
       inkscape:label="Invert"
       id="filter2313"
       x="0"
       y="0"
       width="1"
       height="1">
      <feColorMatrix
         values="0 0 -1 0 1 0 -1 0 0 1 -1 0 0 0 1 -0.21 -0.72 -0.07 2 0 "
         result="color2"
         id="feColorMatrix2311" />
    </filter>
    <filter
       style="color-interpolation-filters:sRGB"
       inkscape:label="Invert"
       id="filter2317"
       x="0"
       y="0"
       width="1"
       height="1">
      <feColorMatrix
         values="0 0 -1 0 1 0 -1 0 0 1 -1 0 0 0 1 -0.21 -0.72 -0.07 2 0 "
         result="color2"
         id="feColorMatrix2315" />
    </filter>
    <filter
       style="color-interpolation-filters:sRGB"
       inkscape:label="Invert"
       id="filter2321"
       x="0"
       y="0"
       width="1"
       height="1">
      <feColorMatrix
         values="0 0 -1 0 1 0 -1 0 0 1 -1 0 0 0 1 -0.21 -0.72 -0.07 2 0 "
         result="color2"
         id="feColorMatrix2319" />
    </filter>
    <filter
       style="color-interpolation-filters:sRGB"
       inkscape:label="Invert"
       id="filter2325"
       x="0"
       y="0"
       width="1"
       height="1">
      <feColorMatrix
         values="0 0 -1 0 1 0 -1 0 0 1 -1 0 0 0 1 -0.21 -0.72 -0.07 2 0 "
         result="color2"
         id="feColorMatrix2323" />
    </filter>
    <filter
       style="color-interpolation-filters:sRGB"
       inkscape:label="Invert"
       id="filter2329"
       x="0"
       y="0"
       width="1"
       height="1">
      <feColorMatrix
         values="0 0 -1 0 1 0 -1 0 0 1 -1 0 0 0 1 -0.21 -0.72 -0.07 2 0 "
         result="color2"
         id="feColorMatrix2327" />
    </filter>
    <filter
       style="color-interpolation-filters:sRGB"
       inkscape:label="Invert"
       id="filter2345"
       x="0"
       y="0"
       width="1"
       height="1">
      <feColorMatrix
         values="0 0 -1 0 1 0 -1 0 0 1 -1 0 0 0 1 -0.21 -0.72 -0.07 2 0 "
         result="color2"
         id="feColorMatrix2343" />
    </filter>
    <filter
       style="color-interpolation-filters:sRGB"
       inkscape:label="Invert"
       id="filter2349"
       x="0"
       y="0"
       width="1"
       height="1">
      <feColorMatrix
         values="0 0 -1 0 1 0 -1 0 0 1 -1 0 0 0 1 -0.21 -0.72 -0.07 2 0 "
         result="color2"
         id="feColorMatrix2347" />
    </filter>
    <filter
       style="color-interpolation-filters:sRGB"
       inkscape:label="Invert"
       id="filter2353"
       x="0"
       y="0"
       width="1"
       height="1">
      <feColorMatrix
         values="0 0 -1 0 1 0 -1 0 0 1 -1 0 0 0 1 -0.21 -0.72 -0.07 2 0 "
         result="color2"
         id="feColorMatrix2351" />
    </filter>
    <filter
       style="color-interpolation-filters:sRGB"
       inkscape:label="Colorize"
       id="filter2357"
       x="0"
       y="0"
       width="1"
       height="1">
      <feColorMatrix
         values="0 0 -1 0 1 0 -1 0 0 1 -1 0 0 0 1 -0.21 -0.72 -0.07 2 0 "
         result="fbSourceGraphic"
         id="feColorMatrix2355" />
      <feColorMatrix
         result="fbSourceGraphicAlpha"
         in="fbSourceGraphic"
         values="0 0 0 -1 0 0 0 0 -1 0 0 0 0 -1 0 0 0 0 1 0"
         id="feColorMatrix17533" />
      <feComposite
         in2="fbSourceGraphic"
         id="feComposite17535"
         operator="arithmetic"
         k1="0"
         k2="0"
         result="composite1"
         in="fbSourceGraphic"
         k3="0"
         k4="0" />
      <feColorMatrix
         id="feColorMatrix17537"
         in="composite1"
         values="1"
         type="saturate"
         result="colormatrix1" />
      <feFlood
         id="feFlood17539"
         flood-opacity="1"
         flood-color="rgb(195,0,0)"
         result="flood1" />
      <feBlend
         in2="colormatrix1"
         id="feBlend17541"
         in="flood1"
         mode="normal"
         result="blend1" />
      <feBlend
         in2="blend1"
         id="feBlend17543"
         mode="normal"
         result="blend2" />
      <feColorMatrix
         id="feColorMatrix17545"
         in="blend2"
         values="1"
         type="saturate"
         result="colormatrix2" />
      <feComposite
         in2="fbSourceGraphic"
         id="feComposite17547"
         in="colormatrix2"
         operator="in"
         result="composite2" />
    </filter>
    <filter
       style="color-interpolation-filters:sRGB"
       inkscape:label="Invert"
       id="filter2361"
       x="0"
       y="0"
       width="1"
       height="1">
      <feColorMatrix
         values="0 0 -1 0 1 0 -1 0 0 1 -1 0 0 0 1 -0.21 -0.72 -0.07 2 0 "
         result="color2"
         id="feColorMatrix2359" />
    </filter>
    <filter
       style="color-interpolation-filters:sRGB"
       inkscape:label="Invert"
       id="filter2365"
       x="0"
       y="0"
       width="1"
       height="1">
      <feColorMatrix
         values="0 0 -1 0 1 0 -1 0 0 1 -1 0 0 0 1 -0.21 -0.72 -0.07 2 0 "
         result="color2"
         id="feColorMatrix2363" />
    </filter>
    <filter
       style="color-interpolation-filters:sRGB"
       inkscape:label="Invert"
       id="filter2369"
       x="0"
       y="0"
       width="1"
       height="1">
      <feColorMatrix
         values="0 0 -1 0 1 0 -1 0 0 1 -1 0 0 0 1 -0.21 -0.72 -0.07 2 0 "
         result="color2"
         id="feColorMatrix2367" />
    </filter>
    <filter
       style="color-interpolation-filters:sRGB"
       inkscape:label="Invert"
       id="filter2373"
       x="0"
       y="0"
       width="1"
       height="1">
      <feColorMatrix
         values="0 0 -1 0 1 0 -1 0 0 1 -1 0 0 0 1 -0.21 -0.72 -0.07 2 0 "
         result="color2"
         id="feColorMatrix2371" />
    </filter>
    <filter
       style="color-interpolation-filters:sRGB"
       inkscape:label="Invert"
       id="filter2377"
       x="0"
       y="0"
       width="1"
       height="1">
      <feColorMatrix
         values="0 0 -1 0 1 0 -1 0 0 1 -1 0 0 0 1 -0.21 -0.72 -0.07 2 0 "
         result="fbSourceGraphic"
         id="feColorMatrix2375" />
      <feColorMatrix
         result="fbSourceGraphicAlpha"
         in="fbSourceGraphic"
         values="0 0 0 -1 0 0 0 0 -1 0 0 0 0 -1 0 0 0 0 1 0"
         id="feColorMatrix5085" />
      <feColorMatrix
         id="feColorMatrix5087"
         values="0 0 -1 0 1 0 -1 0 0 1 -1 0 0 0 1 -0.21 -0.72 -0.07 2 0 "
         result="color2"
         in="fbSourceGraphic" />
    </filter>
    <filter
       style="color-interpolation-filters:sRGB"
       inkscape:label="Invert"
       id="filter2381"
       x="0"
       y="0"
       width="1"
       height="1">
      <feColorMatrix
         values="0 0 -1 0 1 0 -1 0 0 1 -1 0 0 0 1 -0.21 -0.72 -0.07 2 0 "
         result="color2"
         id="feColorMatrix2379" />
    </filter>
    <filter
       style="color-interpolation-filters:sRGB"
       inkscape:label="Invert"
       id="filter2385"
       x="0"
       y="0"
       width="1"
       height="1">
      <feColorMatrix
         values="0 0 -1 0 1 0 -1 0 0 1 -1 0 0 0 1 -0.21 -0.72 -0.07 2 0 "
         result="color2"
         id="feColorMatrix2383" />
    </filter>
    <filter
       inkscape:collect="always"
       style="color-interpolation-filters:sRGB"
       id="filter30819"
       x="-0.024903433"
       y="-0.023159821"
       width="1.0498069"
       height="1.0463196">
      <feGaussianBlur
         inkscape:collect="always"
         stdDeviation="2.767189"
         id="feGaussianBlur30821" />
    </filter>
    <filter
       inkscape:collect="always"
       style="color-interpolation-filters:sRGB"
       id="filter30943"
       x="-0.01556727"
       y="-0.052367"
       width="1.0311345"
       height="1.104734">
      <feGaussianBlur
         inkscape:collect="always"
         stdDeviation="2.2704956"
         id="feGaussianBlur30945" />
    </filter>
    <filter
       inkscape:collect="always"
       style="color-interpolation-filters:sRGB"
       id="filter30949"
       x="-0.014187384"
       y="-0.077832024"
       width="1.0283748"
       height="1.155664">
      <feGaussianBlur
         inkscape:collect="always"
         stdDeviation="4.3593986"
         id="feGaussianBlur30951" />
    </filter>
  </defs>
  <sodipodi:namedview
     id="namedview165"
     pagecolor="#505050"
     bordercolor="#eeeeee"
     borderopacity="1"
     inkscape:pageshadow="0"
     inkscape:pageopacity="0"
     inkscape:pagecheckerboard="true"
     inkscape:document-units="pt"
     showgrid="false"
     inkscape:zoom="0.80015624"
     inkscape:cx="345.55751"
     inkscape:cy="189.33802"
     inkscape:window-width="1920"
     inkscape:window-height="1027"
     inkscape:window-x="-8"
     inkscape:window-y="-8"
     inkscape:window-maximized="1"
     inkscape:current-layer="svg163"
     fit-margin-top="0"
     fit-margin-left="0"
     fit-margin-right="0"
     fit-margin-bottom="0" />
  <path
     id="path30947"
     style="mix-blend-mode:normal;stroke-width:1.33333;filter:url(#filter30949)"
     d="m 858.01367,159.46289 c -5.92333,0.15 -12.26088,1.48383 -17.57422,0.92383 -14.18666,7.17333 -4.97284,27.26642 -8.82617,40.0664 -3.12,-20.07998 -30.50713,-22.66583 -45.48047,-15.8125 -11.96,-0.70665 -23.95992,-5.88083 -35.91992,-1.1875 -12.88,1.38667 -36.86625,-8.61255 -39.90625,9.80079 -15.04,-18.77334 -44.61401,-12.05302 -65.02734,-6.67969 -7.64,7.52 -6.41313,20.42578 -5.45313,30.42578 -1.09333,0.0133 -4.73377,3.21305 -3.78711,0.37305 0.68,-10.09334 5.72183,-25.45227 -4.46484,-31.57227 -26.8,-7.57333 -62.0149,-8.88031 -79.60156,16.67969 -1.10667,-13.22667 -18.85297,-24.03982 -33.29297,-21.14649 -15.25334,3.48 -30.81357,0.30542 -46.24024,1.71875 -7.25333,2.14667 -8.10646,11.04066 -7.45312,17.33399 -7.50667,-26.02667 -41.23951,-19.39917 -61.82617,-15.8125 -13.66667,1.98667 -12.58706,20.03818 -11.40039,30.46484 0.36,2.6 -3.01295,3.46854 -4.59961,4.92188 -4.93334,1.45333 0.37276,-14.88011 -2.25391,-18.77344 -1,-1.54667 -5.17229,-4.77458 -1.26563,-5.28125 13.04001,-3.70667 15.43995,-30.21346 1.61329,-34.4668 -20.41334,-0.26666 -40.84058,-0.1194 -61.25391,-0.0527 -5.78667,-1.49333 -12.00023,2.35906 -13.24023,8.03906 0.10666,26.50667 -1.17362,52.975 -3.62696,79.375 -1.09333,5.25333 0.93422,11.81346 6.57422,13.4668 10.29333,1.32 20.82555,0.25172 31.18555,0.0117 12.81333,-5.08 4.84117,-22.69318 7.20117,-32.83985 10.18667,0 20.38586,-0.10638 30.50586,-1.37304 -6.93333,18.13333 8.18802,39.07966 28.05469,35.98632 17.21333,-2.38666 35.38505,1.2536 52.01172,-4.0664 11.25333,4.05333 25.40099,4.86765 36.34765,0.34765 7.98667,-8.92 2.53229,-23.16036 6.26563,-33.70703 0.2,-0.21333 1.28148,-10.38742 4.52148,-7.10742 4.57333,12.49333 -9.04141,35.10643 6.5586,42.75977 10.10666,-1.48 29.01403,6.36083 33.7207,-6.8125 -3.58667,-13.30667 12.93232,0.93224 4.95898,4.8789 -3.10666,8.61334 -2.15854,22.22844 4.82813,29.14844 22.44,4.90667 48.51942,8.37247 68.74609,-4.88086 5.86667,-8.41333 7.57328,-18.7325 7.61328,-28.8125 8.57334,10.68 24.10597,8.49253 36.2793,7.50586 12.62667,-1.8 26.09349,1.50635 38.16016,-3.32031 10.78666,4.37333 23.61362,3.57424 34.62695,1.26758 3.56,-4.01334 7.57375,-1.62735 11.09375,0.97265 10.74667,-0.28 23.76008,3.69287 33.08008,-3.48047 11.65333,6.66667 27.14718,5.20024 39.86718,1.24024 12.57334,4.50666 28.10558,4.91943 39.87891,-1.25391 4.17333,2.28 7.94774,6.05367 13.42773,4.01367 8.18667,-1.21333 21.61191,3.68105 25.86524,-6.26562 3.04,-11.46667 0.88172,-23.82716 4.76172,-35.17383 0.21333,-1.32 1.97255,-3.80044 3.19922,-1.78711 4.57333,12.49333 -9.03946,35.10643 6.56054,42.75977 10.09334,-1.48 29.01209,6.36083 33.71875,-6.8125 -3.58666,-13.30667 12.93427,0.93224 4.96094,4.8789 -3.53333,10.18667 -2.41424,32.69443 13.73242,31.1211 16.88,2.22666 35.13485,4.59916 51.21485,-2.1875 19.6267,-6.82667 15.72,-33.18597 16,-49.2793 -2.96,-17.22667 6.3729,-36.71924 -1.7871,-52.89258 -25.4,-8.72 -60.53394,-11.32026 -78.94728,12.06641 -1.33333,3.08 -8.88083,7.81237 -5.1875,-2.6543 -6.30666,-14.69333 -25.58526,-17.53341 -39.55859,-14.08008 -14.26667,3.49334 -31.33479,-5.14549 -43.82813,4.20117 0.04,-7.01333 -0.0383,-14.01332 -0.23828,-21 -3.66,-5.29333 -9.17041,-6.32773 -15.09375,-6.17773 z m -264.78515,58.07617 c 3.65976,-0.0369 0.24648,14.18633 -5.22852,11.86133 -2.29333,-5.18667 0.72039,-9.02763 4.40039,-11.6543 0.30833,-0.13833 0.58414,-0.20457 0.82813,-0.20703 z m 406.66601,0 c 3.65977,-0.0369 0.24647,14.18633 -5.22851,11.86133 -2.32,-5.18667 0.73372,-9.02763 4.40039,-11.6543 0.30833,-0.13833 0.58414,-0.20457 0.82812,-0.20703 z"
     transform="matrix(0.75,0,0,0.75,-21.07863,0.04008719)" />
  <path
     id="path30941"
     style="mix-blend-mode:normal;stroke-width:1.33333;filter:url(#filter30943)"
     d="m 338.03906,12.619141 c -7.26592,0.152754 -15.14211,2.091562 -21.59961,1.101562 -5.18666,1.68 -8.41273,7.531979 -7.05273,12.945313 0.73333,19.613333 -2.06594,39.040963 -1.58594,58.654296 -0.21333,9.493334 -5.61375,24.467268 5.90625,28.947268 10.29333,1.30666 20.82555,0.25172 31.18555,0.0117 11.06666,-4.26667 6.41458,-18.466279 8.28125,-27.599612 -3.92,-11.906667 10.61307,-4.867292 16.0664,-6.640626 1.08,9.506667 -2.17312,19.081407 -0.45312,28.441408 5.76,11.33333 21.57289,4.37281 31.21289,6.13281 9.62667,2.50667 15.75969,-7.9993 13.67969,-16.279296 10.46666,20.813336 40.24112,18.892086 59.81445,16.718746 6.74667,2.12 9.42513,-4.19924 13.0918,-6.89257 9.2,12.14666 29.26825,7.89226 41.29492,2.57226 9.22667,7.56 22.13172,2.93354 33.01172,3.54688 8.49333,-2.49334 7.28151,-12.8931 7.21484,-19.759769 13.73334,23.093329 45.03865,27.452889 67.94531,16.212889 23.69334,-11.813331 26.08032,-45.91854 10.32032,-65.171873 -21.52,-19.133333 -58.11875,-15.64013 -75.71875,6.533203 1.58666,-10.44 3.10664,-21.067292 2.30664,-31.640625 -4.04,-11.3066667 -18.78696,-6.240417 -27.62696,-7.09375 -5.64,-2.613333 -8.58817,3.401536 -13.21484,3.908203 -9.22667,-7.5599999 -22.15838,-2.933542 -33.01172,-3.546875 -12.96,6.293333 -5.88054,24.2525 -8.56054,35.8125 -17.20001,-23.706667 -59.93386,-22.092969 -75.86719,2.707031 -0.76,-11.28 4.29455,-23.719531 -0.41211,-34.519531 -8.13334,-9.5466665 -23.18813,-2.453333 -33.82813,-4 -12.50666,4.973333 -5.14521,21.838594 -7.17187,31.558594 -5,-0.01333 -14.98794,-0.01172 -19.97461,-0.01172 -1.18667,-9 4.06729,-18.986875 -0.35938,-27.546875 -3.96083,-4.258333 -9.24326,-5.220371 -14.89453,-5.101562 z m 272.50391,56.814453 c 0.36612,-0.0082 0.77914,0.07143 1.24414,0.259765 0.59936,0.271367 1.82106,0.922226 2.50586,3.732422 1.56,5.4 -7.18544,10.027891 -7.41211,2.587891 0.77,-2.123333 1.09927,-6.522656 3.66211,-6.580078 z"
     transform="matrix(0.75,0,0,0.75,-21.07863,0.04008719)" />
  <path
     id="path30756"
     style="mix-blend-mode:normal;stroke-width:1.33333;filter:url(#filter30819)"
     d="m 209.375,6.5996094 c -1.68354,0.055417 -3.34547,0.3030208 -4.85547,0.6796875 -7.53333,0.64 -13.29252,6.0403641 -19.50586,9.7070311 -16.44,10.013333 -35.81289,12.307552 -54.21289,16.574219 -42.759996,6.28 -81.133179,42.119108 -82.839842,86.425783 -4.253334,19.85333 15.745677,30.70745 26.652343,42.80078 -11.653333,18.76 -30.253854,34.092 -39.867187,54.63867 0.466666,23.32 7.494661,46.06779 12.361328,68.81445 1.213333,8.66667 13.425286,4.94594 19.251953,5.58594 10.666667,-10.46666 7.854478,-28.05229 13.507813,-41.26562 4.106666,-13.02667 -10.387527,-18.88037 -15.88086,-27.70703 5.346667,-3.2 11.680654,-4.29326 17.333984,-6.91993 2.040003,-0.97333 5.799349,-2.49377 5.666016,1.21289 7.853333,19.45334 11.173932,40.78602 7.947266,61.66602 -2.053334,6.13333 0.773217,12.60146 7.226566,13.82812 15.4,4.69334 18.82708,-15.29304 27.09375,-23.37304 15.04,-21.16 27.08015,-44.38779 43.16015,-64.81446 1.78667,-2.76 -0.0676,-6.8263 2.34571,-9.29296 13.01333,2.53333 24.69296,-6.16084 37.29296,-7.1875 -0.48,25.78666 -24.37192,39.2138 -39.55859,56.48046 -10.89333,13.17334 -28.86711,23.61409 -29.78711,42.10743 3.65333,8.24 15.34555,7.98567 22.18555,3.65234 12.16,-10.92 23.30833,-23.22667 36.375,-33 18.77333,-14.8 43.38581,-1.70588 64.11914,-9.19922 17.09333,-9.72 24.21351,-29.65403 31.85351,-46.7207 6.66667,-11.22667 5.46704,-28.10703 -4.29296,-36.70703 -8.21334,2.33333 -6.96133,-5.29347 -9.36133,-9.4668 -10.90667,-6.02667 -21.74516,-12.18565 -32.78516,-17.95898 4.61333,-19.82667 7.17182,-40.040525 11.78516,-59.867191 2.61333,-9.986667 6.82713,-21.466667 0.48047,-31 -6.6,-8.04 -18.92068,-4.57224 -27.02735,-0.878907 -8,5.546667 -19.07896,0.960027 -25.26562,-4.30664 3.42666,-9.253333 16.89291,-16.481094 10.90625,-28.121094 -2,-4.9899996 -7.25407,-6.5529686 -12.30469,-6.3867186 z M 179.39648,88.029297 c 11.96851,0.04456 23.92089,2.430625 34.94922,7.078125 1.28,3.226667 -3.61177,2.051953 -5.39843,3.251953 -14.33334,3.186665 -29.28003,2.694295 -43.69336,5.654295 2.06666,-4.973327 0.2519,-13.400623 5.86523,-15.640623 2.7525,-0.24 5.51538,-0.354033 8.27734,-0.34375 z m -50.02343,6.396484 c 5.98666,5.173334 12.72057,9.599979 18.2539,15.306639 -2.84,17.97334 18.14589,25.85386 32.19922,27.86719 -5.17333,7.26667 -23.74622,5.33338 -21.21289,18.38672 -3.18667,12.22666 7.38755,20.34726 10.57422,30.94726 -15.54667,-11.49333 -32.18747,-23.21364 -43.49414,-39.32031 0.25333,-9.77333 6.51997,-18.8806 6.30664,-28.94726 1.26667,-8.30667 -2.62695,-16.04024 -2.62695,-24.240239 z M 84.386719,119.05273 c 3.48,0.93334 5.373021,7.00073 7.679687,10.41407 -5.066666,0.93333 -15.626354,-7.6674 -7.679687,-10.41407 z m 191.732421,56.80079 c -6.61333,16.06666 -13.70549,33.83911 -26.79883,45.42578 -5.65333,-6.12 -13.09442,-15.66558 -13.12109,-24.87891 12.97333,-6.52 25.25456,-14.22802 38.58789,-20.05469 z"
     transform="matrix(0.75,0,0,0.75,-21.07863,0.04008719)" />
  <path
     id="path91"
     style="stroke-width:1.33333;filter:url(#filter2385)"
     d="m 209.375,6.5996094 c -1.68354,0.055417 -3.34547,0.3030208 -4.85547,0.6796875 -7.53333,0.64 -13.29252,6.0403641 -19.50586,9.7070311 -16.44,10.013333 -35.81289,12.307552 -54.21289,16.574219 -42.759996,6.28 -81.133179,42.119108 -82.839842,86.425783 -4.253334,19.85333 15.745677,30.70745 26.652343,42.80078 -11.653333,18.76 -30.253854,34.092 -39.867187,54.63867 0.466666,23.32 7.494661,46.06779 12.361328,68.81445 1.213333,8.66667 13.425286,4.94594 19.251953,5.58594 10.666667,-10.46666 7.854478,-28.05229 13.507813,-41.26562 4.106666,-13.02667 -10.387527,-18.88037 -15.88086,-27.70703 5.346667,-3.2 11.680654,-4.29326 17.333984,-6.91993 2.040003,-0.97333 5.799349,-2.49377 5.666016,1.21289 7.853333,19.45334 11.173932,40.78602 7.947266,61.66602 -2.053334,6.13333 0.773217,12.60146 7.226566,13.82812 15.4,4.69334 18.82708,-15.29304 27.09375,-23.37304 15.04,-21.16 27.08015,-44.38779 43.16015,-64.81446 1.78667,-2.76 -0.0676,-6.8263 2.34571,-9.29296 13.01333,2.53333 24.69296,-6.16084 37.29296,-7.1875 -0.48,25.78666 -24.37192,39.2138 -39.55859,56.48046 -10.89333,13.17334 -28.86711,23.61409 -29.78711,42.10743 3.65333,8.24 15.34555,7.98567 22.18555,3.65234 12.16,-10.92 23.30833,-23.22667 36.375,-33 18.77333,-14.8 43.38581,-1.70588 64.11914,-9.19922 17.09333,-9.72 24.21351,-29.65403 31.85351,-46.7207 6.66667,-11.22667 5.46704,-28.10703 -4.29296,-36.70703 -8.21334,2.33333 -6.96133,-5.29347 -9.36133,-9.4668 -10.90667,-6.02667 -21.74516,-12.18565 -32.78516,-17.95898 4.61333,-19.82667 7.17182,-40.040525 11.78516,-59.867191 2.61333,-9.986667 6.82713,-21.466667 0.48047,-31 -6.6,-8.04 -18.92068,-4.57224 -27.02735,-0.878907 -8,5.546667 -19.07896,0.960027 -25.26562,-4.30664 3.42666,-9.253333 16.89291,-16.481094 10.90625,-28.121094 -2,-4.9899996 -7.25407,-6.5529686 -12.30469,-6.3867186 z M 179.39648,88.029297 c 11.96851,0.04456 23.92089,2.430625 34.94922,7.078125 1.28,3.226667 -3.61177,2.051953 -5.39843,3.251953 -14.33334,3.186665 -29.28003,2.694295 -43.69336,5.654295 2.06666,-4.973327 0.2519,-13.400623 5.86523,-15.640623 2.7525,-0.24 5.51538,-0.354033 8.27734,-0.34375 z m -50.02343,6.396484 c 5.98666,5.173334 12.72057,9.599979 18.2539,15.306639 -2.84,17.97334 18.14589,25.85386 32.19922,27.86719 -5.17333,7.26667 -23.74622,5.33338 -21.21289,18.38672 -3.18667,12.22666 7.38755,20.34726 10.57422,30.94726 -15.54667,-11.49333 -32.18747,-23.21364 -43.49414,-39.32031 0.25333,-9.77333 6.51997,-18.8806 6.30664,-28.94726 1.26667,-8.30667 -2.62695,-16.04024 -2.62695,-24.240239 z M 84.386719,119.05273 c 3.48,0.93334 5.373021,7.00073 7.679687,10.41407 -5.066666,0.93333 -15.626354,-7.6674 -7.679687,-10.41407 z m 191.732421,56.80079 c -6.61333,16.06666 -13.70549,33.83911 -26.79883,45.42578 -5.65333,-6.12 -13.09442,-15.66558 -13.12109,-24.87891 12.97333,-6.52 25.25456,-14.22802 38.58789,-20.05469 z"
     transform="matrix(0.75,0,0,0.75,-21.07863,0.04008719)" />
  <path
     id="path93"
     style="stroke-width:1.33333;filter:url(#filter2381)"
     d="m 338.03906,12.619141 c -7.26592,0.152754 -15.14211,2.091562 -21.59961,1.101562 -5.18666,1.68 -8.41273,7.531979 -7.05273,12.945313 0.73333,19.613333 -2.06594,39.040963 -1.58594,58.654296 -0.21333,9.493334 -5.61375,24.467268 5.90625,28.947268 10.29333,1.30666 20.82555,0.25172 31.18555,0.0117 11.06666,-4.26667 6.41458,-18.466279 8.28125,-27.599612 -3.92,-11.906667 10.61307,-4.867292 16.0664,-6.640626 1.08,9.506667 -2.17312,19.081407 -0.45312,28.441408 5.76,11.33333 21.57289,4.37281 31.21289,6.13281 9.62667,2.50667 15.75969,-7.9993 13.67969,-16.279296 10.46666,20.813336 40.24112,18.892086 59.81445,16.718746 6.74667,2.12 9.42513,-4.19924 13.0918,-6.89257 9.2,12.14666 29.26825,7.89226 41.29492,2.57226 9.22667,7.56 22.13172,2.93354 33.01172,3.54688 8.49333,-2.49334 7.28151,-12.8931 7.21484,-19.759769 13.73334,23.093329 45.03865,27.452889 67.94531,16.212889 23.69334,-11.813331 26.08032,-45.91854 10.32032,-65.171873 -21.52,-19.133333 -58.11875,-15.64013 -75.71875,6.533203 1.58666,-10.44 3.10664,-21.067292 2.30664,-31.640625 -4.04,-11.3066667 -18.78696,-6.240417 -27.62696,-7.09375 -5.64,-2.613333 -8.58817,3.401536 -13.21484,3.908203 -9.22667,-7.5599999 -22.15838,-2.933542 -33.01172,-3.546875 -12.96,6.293333 -5.88054,24.2525 -8.56054,35.8125 -17.20001,-23.706667 -59.93386,-22.092969 -75.86719,2.707031 -0.76,-11.28 4.29455,-23.719531 -0.41211,-34.519531 -8.13334,-9.5466665 -23.18813,-2.453333 -33.82813,-4 -12.50666,4.973333 -5.14521,21.838594 -7.17187,31.558594 -5,-0.01333 -14.98794,-0.01172 -19.97461,-0.01172 -1.18667,-9 4.06729,-18.986875 -0.35938,-27.546875 -3.96083,-4.258333 -9.24326,-5.220371 -14.89453,-5.101562 z m 272.50391,56.814453 c 0.36612,-0.0082 0.77914,0.07143 1.24414,0.259765 0.59936,0.271367 1.82106,0.922226 2.50586,3.732422 1.56,5.4 -7.18544,10.027891 -7.41211,2.587891 0.77,-2.123333 1.09927,-6.522656 3.66211,-6.580078 z"
     transform="matrix(0.75,0,0,0.75,-21.07863,0.04008719)" />
  <path
     id="path95"
     style="fill:#c30000;fill-opacity:1;stroke-width:1.33333;filter:url(#filter2377)"
     d="m 208.99805,14.519531 c -3.40969,0.175635 -7.10633,1.835547 -9.79883,3.373047 -21.49333,17.893333 -50.7463,18.307917 -76.29297,26.28125 -37.32,9.173333 -70.132526,44.746693 -66.505859,84.693362 5.68,11.93333 16.520494,20.05192 26.173828,28.55859 12.786666,0.08 14.12767,6.04278 38.318361,-1.17187 -11.30667,-11.64 4.57443,-26.80118 3.12109,-40.20118 1.26667,-10.86666 -6.4662,-19.998433 -6.51953,-30.398433 3.25333,-2.2 7.80013,-6.97388 11.4668,-2.560547 9.78666,6.026667 17.81323,17.26685 28.22656,20.85352 0.94667,-8.493338 3.54583,-16.69477 4.8125,-25.13477 12.68,0.253333 25.26591,1.493359 37.89258,2.693359 10.69333,2.973334 28.90703,6.268151 30.70703,19.521481 -24.66667,8.14667 -50.72,8.89245 -76,12.42578 12.84,18.96 39.02779,16.58748 58.81445,21.49415 -14.28,8.82666 -32.64127,10.15901 -46.97461,19.65234 31.1052,6.15441 62.09438,9.03145 92.30664,-2.67969 -5.4,-4.42666 -12.21278,-6.65268 -18.43945,-9.66601 7.36,-28.45334 10.76065,-57.773155 18.33398,-86.146488 -3.77333,-13.773333 -18.30778,-2.241354 -26.81445,0.945312 -13.17333,0.346667 -24.29286,-7.131849 -34.51953,-14.478515 5.81333,-8.586667 12.99953,-16.213672 18.51953,-25.013672 -1.6975,-2.415 -4.17614,-3.177621 -6.82812,-3.041016 z M 84.386719,119.05273 c 3.48,0.93334 5.373021,7.00073 7.679687,10.41407 -5.066666,0.93333 -15.626354,-7.6674 -7.679687,-10.41407 z"
     transform="matrix(0.75,0,0,0.75,-21.07863,0.04008719)" />
  <path
     fill="#ffff3c"
     d="m 216.98137,16.100087 c 7.27,-0.1 14.56,-0.24 21.84,0.01 -0.77,7.94 -0.64,15.96 -1.84,23.86 9.29,0.06 18.6,0.3 27.89,-0.01 0.29,-7.96 -0.25,-15.92 0.14,-23.87 6.64,-0.15 13.28,-0.15 19.93,0.02 -0.92,21.29 -2.3,42.55 -2.08,63.88 -7.29,0.09 -14.57,0.23 -21.85,-0.02 1.19,-8.59 0.04,-17.38 1.94,-25.86 -8.29,-0.15 -16.59,-0.18 -24.87,0 -0.29,8.63 -1.19,17.22 -1.3,25.86 -7.29,0.11 -14.59,0.26 -21.87,0 0.79,-21.3 2.1,-42.55 2.07,-63.87 z"
     id="path97"
     style="filter:url(#filter2373)" />
  <path
     fill="#ffff3c"
     d="m 354.04137,16.090087 c 6.25,-0.05 12.54,-0.31 18.79,0.05 -1.75,21.25 -2.95,42.55 -4.04,63.85 -6.27,0.04 -12.53,0.31 -18.78,-0.05 1.85,-21.25 2.94,-42.55 4.03,-63.85 z"
     id="path99"
     style="filter:url(#filter2369)" />
  <path
     fill="#ffff3c"
     d="m 384.04137,16.090087 c 6.25,-0.05 12.54,-0.31 18.79,0.05 -1.75,21.25 -2.95,42.55 -4.04,63.85 -6.27,0.04 -12.53,0.31 -18.78,-0.05 1.85,-21.25 2.94,-42.55 4.03,-63.85 z"
     id="path101"
     style="filter:url(#filter2365)" />
  <path
     fill="#ffff3c"
     d="m 313.31137,31.510087 c 15.65,-5.09 36.94,8.72 29.37,26.39 -10.59,0.43 -21.18,-0.12 -31.77,0.21 -0.9,4 1.42,8.4 5.32,9.59 7.75,3.1 15.96,0.05 23.68,-1.63 -0.41,4.28 -0.8,8.64 -2.27,12.7 -13.06,3.52 -29.58,4.63 -40.37,-5.08 -11.77,-14.26 -3.44,-40.67 16.04,-42.18 z"
     id="path103"
     style="filter:url(#filter2361)" />
  <path
     id="path5302"
     style="stroke-width:1.33333;filter:url(#filter2357)"
     d="m 613.4375,40.652344 c -2.97729,-0.01302 -5.98536,0.365833 -8.95703,1.1875 -19.81333,1.96 -36.73401,22.22664 -30.02735,42.30664 8.32,33.319996 66.56019,31.773356 72.85352,-2.30664 6.24167,-21.758334 -13.0281,-41.096354 -33.86914,-41.1875 z m -2.89453,28.78125 c 0.36612,-0.0082 0.77914,0.07143 1.24414,0.259765 0.59936,0.271367 1.82106,0.922226 2.50586,3.732422 1.56,5.4 -7.18544,10.027891 -7.41211,2.587891 0.77,-2.123333 1.09927,-6.522656 3.66211,-6.580078 z"
     transform="matrix(0.75,0,0,0.75,-21.07863,0.04008719)" />
  <path
     fill="#000000"
     d="m 317.26137,42.310087 c 5.52,-2.35 11.36,2.94 9.7,8.68 -3.77,0 -11.3,0 -15.07,0.01 -0.57,-3.74 1.81,-7.51 5.37,-8.69 z"
     id="path107"
     style="filter:url(#filter2353)" />
  <path
     id="path109"
     style="stroke-width:1.33333;filter:url(#filter2349)"
     d="m 611.51562,59.558594 c -1.36864,-0.0193 -2.83815,0.229114 -4.39648,0.800781 -9.25333,3.906667 -11.89154,19.467005 -4.1582,26.013672 5.53333,5.946667 16.67929,2.867187 18.27929,-5.132813 4.49167,-8.236666 -0.14408,-21.546562 -9.72461,-21.68164 z m -0.97265,9.875 c 0.36612,-0.0082 0.77914,0.07143 1.24414,0.259765 0.59936,0.271367 1.82106,0.922226 2.50586,3.732422 1.56,5.4 -7.18544,10.027891 -7.41211,2.587891 0.77,-2.123333 1.09927,-6.522656 3.66211,-6.580078 z"
     transform="matrix(0.75,0,0,0.75,-21.07863,0.04008719)" />
  <path
     id="path119"
     style="stroke-width:1.33333;filter:url(#filter2329)"
     d="m 86.414062,104.01367 c -5.773333,5.2 -12.121093,10.03932 -17.121093,15.97266 4.933333,14.56 21.574271,22.94677 35.960941,15.77344 -2.32,-11.76 -13.599848,-20.95943 -18.839848,-31.7461 z m -2.027343,15.03906 c 3.48,0.93334 5.373021,7.00073 7.679687,10.41407 -5.066666,0.93333 -15.626354,-7.6674 -7.679687,-10.41407 z"
     transform="matrix(0.75,0,0,0.75,-21.07863,0.04008719)" />
  <path
     fill="#ffff68"
     d="m 103.75137,115.99009 c 23.08,-0.3 46.2,-0.55 69.23,-2.01 4.89,2.85 13.8,4.23 14.77,9.72 -14.51,6.09 -28.64,13.57 -41.62,22.45 4.63,9.61 10.25,18.67 16.25,27.47 1.15,0.78 2.6,2.16 3.88,0.78 16.21,-10.89 19.91,-31.44 30.39,-46.47 5.54,12.95 -3.26,24.33 -8.02,35.85 -4.49,6.21 -7.51,15.11 -15.85,17.03 -12.32,2.94 -25.17,-2.58 -37.21,1.85 -14.43,4.91 -23.53,17.79 -34.3,27.69 -1.84,3.36 -6.04,3.24 -9.41,3.73 0.22,-4.11 3.18,-7.39 6.13,-9.97 12.2,-13.79 25.28,-26.7 38.5,-39.49 5.94,-9.28 7.83,-20.7 8.39,-31.58 -10.92,0.59 -21.3,5.05 -31.57,7.87 -2.7,-8.21 -10.76,-17.31 -9.56,-24.92 z"
     id="path123"
     style="filter:url(#filter2321)" />
  <path
     fill="#ffff68"
     d="m 40.85137,118.11009 c 9.59,0.06 19.15,-0.8 28.74,-0.88 9.5,12 22.08,20.96 34.22,30.07 -14.28,18.7 -24.88,39.86 -38.98,58.66 -2.12,3.37 -3.87,8.71 -8.83,8.12 3.14,-21.12 0.42,-42.95 -9.26,-62.07 -10.46,4.37 -21.21,8 -31.72,12.25 4.89,7.41 12.17,12.93 18.6,18.92 -2.73,8.58 -4.89,17.33 -6.46,26.18 0.3,4.19 -4.68,6.1 -6.95,2.39 -3.76,-15.38 -6.76,-30.98 -9.9,-46.5 9.64,-14.97 21.9,-27.93 33.29,-41.54 1.61,-2.57 -1.33,-3.95 -2.75,-5.6 z"
     id="path125"
     style="filter:url(#filter2317)" />
  <path
     id="path127"
     style="stroke-width:1.33333;filter:url(#filter2313)"
     d="m 858.01367,159.46289 c -5.92333,0.15 -12.26088,1.48383 -17.57422,0.92383 -14.18666,7.17333 -4.97284,27.26642 -8.82617,40.0664 -3.12,-20.07998 -30.50713,-22.66583 -45.48047,-15.8125 -11.96,-0.70665 -23.95992,-5.88083 -35.91992,-1.1875 -12.88,1.38667 -36.86625,-8.61255 -39.90625,9.80079 -15.04,-18.77334 -44.61401,-12.05302 -65.02734,-6.67969 -7.64,7.52 -6.41313,20.42578 -5.45313,30.42578 -1.09333,0.0133 -4.73377,3.21305 -3.78711,0.37305 0.68,-10.09334 5.72183,-25.45227 -4.46484,-31.57227 -26.8,-7.57333 -62.0149,-8.88031 -79.60156,16.67969 -1.10667,-13.22667 -18.85297,-24.03982 -33.29297,-21.14649 -15.25334,3.48 -30.81357,0.30542 -46.24024,1.71875 -7.25333,2.14667 -8.10646,11.04066 -7.45312,17.33399 -7.50667,-26.02667 -41.23951,-19.39917 -61.82617,-15.8125 -13.66667,1.98667 -12.58706,20.03818 -11.40039,30.46484 0.36,2.6 -3.01295,3.46854 -4.59961,4.92188 -4.93334,1.45333 0.37276,-14.88011 -2.25391,-18.77344 -1,-1.54667 -5.17229,-4.77458 -1.26563,-5.28125 13.04001,-3.70667 15.43995,-30.21346 1.61329,-34.4668 -20.41334,-0.26666 -40.84058,-0.1194 -61.25391,-0.0527 -5.78667,-1.49333 -12.00023,2.35906 -13.24023,8.03906 0.10666,26.50667 -1.17362,52.975 -3.62696,79.375 -1.09333,5.25333 0.93422,11.81346 6.57422,13.4668 10.29333,1.32 20.82555,0.25172 31.18555,0.0117 12.81333,-5.08 4.84117,-22.69318 7.20117,-32.83985 10.18667,0 20.38586,-0.10638 30.50586,-1.37304 -6.93333,18.13333 8.18802,39.07966 28.05469,35.98632 17.21333,-2.38666 35.38505,1.2536 52.01172,-4.0664 11.25333,4.05333 25.40099,4.86765 36.34765,0.34765 7.98667,-8.92 2.53229,-23.16036 6.26563,-33.70703 0.2,-0.21333 1.28148,-10.38742 4.52148,-7.10742 4.57333,12.49333 -9.04141,35.10643 6.5586,42.75977 10.10666,-1.48 29.01403,6.36083 33.7207,-6.8125 -3.58667,-13.30667 12.93232,0.93224 4.95898,4.8789 -3.10666,8.61334 -2.15854,22.22844 4.82813,29.14844 22.44,4.90667 48.51942,8.37247 68.74609,-4.88086 5.86667,-8.41333 7.57328,-18.7325 7.61328,-28.8125 8.57334,10.68 24.10597,8.49253 36.2793,7.50586 12.62667,-1.8 26.09349,1.50635 38.16016,-3.32031 10.78666,4.37333 23.61362,3.57424 34.62695,1.26758 3.56,-4.01334 7.57375,-1.62735 11.09375,0.97265 10.74667,-0.28 23.76008,3.69287 33.08008,-3.48047 11.65333,6.66667 27.14718,5.20024 39.86718,1.24024 12.57334,4.50666 28.10558,4.91943 39.87891,-1.25391 4.17333,2.28 7.94774,6.05367 13.42773,4.01367 8.18667,-1.21333 21.61191,3.68105 25.86524,-6.26562 3.04,-11.46667 0.88172,-23.82716 4.76172,-35.17383 0.21333,-1.32 1.97255,-3.80044 3.19922,-1.78711 4.57333,12.49333 -9.03946,35.10643 6.56054,42.75977 10.09334,-1.48 29.01209,6.36083 33.71875,-6.8125 -3.58666,-13.30667 12.93427,0.93224 4.96094,4.8789 -3.53333,10.18667 -2.41424,32.69443 13.73242,31.1211 16.88,2.22666 35.13485,4.59916 51.21485,-2.1875 19.6267,-6.82667 15.72,-33.18597 16,-49.2793 -2.96,-17.22667 6.3729,-36.71924 -1.7871,-52.89258 -25.4,-8.72 -60.53394,-11.32026 -78.94728,12.06641 -1.33333,3.08 -8.88083,7.81237 -5.1875,-2.6543 -6.30666,-14.69333 -25.58526,-17.53341 -39.55859,-14.08008 -14.26667,3.49334 -31.33479,-5.14549 -43.82813,4.20117 0.04,-7.01333 -0.0383,-14.01332 -0.23828,-21 -3.66,-5.29333 -9.17041,-6.32773 -15.09375,-6.17773 z m -264.78515,58.07617 c 3.65976,-0.0369 0.24648,14.18633 -5.22852,11.86133 -2.29333,-5.18667 0.72039,-9.02763 4.40039,-11.6543 0.30833,-0.13833 0.58414,-0.20457 0.82813,-0.20703 z m 406.66601,0 c 3.65977,-0.0369 0.24647,14.18633 -5.22851,11.86133 -2.32,-5.18667 0.73372,-9.02763 4.40039,-11.6543 0.30833,-0.13833 0.58414,-0.20457 0.82812,-0.20703 z"
     transform="matrix(0.75,0,0,0.75,-21.07863,0.04008719)" />
  <path
     fill="#ffff68"
     d="m 609.95137,126.09009 c 6.21,-0.05 12.46,-0.27 18.69,-0.01 -0.32,3.62 -0.62,7.25 -0.9,10.88 -5.95,0.09 -11.88,0.34 -17.8,0 0.01,-2.72 0.01,-8.15 0.01,-10.87 z"
     id="path129"
     style="filter:url(#filter2309)" />
  <path
     fill="#ffff68"
     d="m 217.97137,127.08009 c 16.65,-0.08 33.3,-0.11 49.96,0.02 0.29,4.66 -0.42,9.28 -1.16,13.86 -9.61,0.37 -19.23,-0.25 -28.83,0.17 0.01,2.72 0.01,8.15 0.01,10.87 7.97,0.28 15.96,-0.26 23.93,0.13 0.03,4.61 0.28,9.25 -0.05,13.86 -7.88,1 -16.78,-1.5 -24.23,0.74 -1.65,7.65 -0.12,16.21 -0.77,24.26 -7.3,0.09 -14.61,0.23 -21.9,-0.01 2.12,-21.24 3.19,-42.56 3.04,-63.9 z"
     id="path131"
     style="filter:url(#filter2305)" />
  <path
     fill="#ffff68"
     d="m 294.32137,142.58009 c 9.09,-0.87 24.18,-1.88 27.53,9.55 0.91,13 -1.54,25.86 -0.99,38.86 -6.32,0.04 -12.63,0.32 -18.93,-0.05 0.32,-6.97 1.36,-13.91 0.99,-20.9 -4.32,3.07 -16.36,1.9 -14.82,9.74 2.23,3.76 7.13,2.22 10.64,1.29 -0.87,3.27 -1.55,6.64 -3.12,9.67 -10.26,5.33 -27.58,-2.22 -24.41,-15.41 3.33,-12.04 16.93,-12.36 26.82,-15.15 4.01,-0.11 7.11,-4.75 3.19,-7.45 -7.77,-2.3 -15.95,1.43 -23.33,4.22 0.56,-3.9 0.31,-8.12 2.31,-11.63 4.34,-2.16 9.43,-1.84 14.12,-2.74 z"
     id="path135"
     style="filter:url(#filter2297)" />
  <path
     fill="#ffff68"
     d="m 364.30137,142.44009 c 8.03,-1.82 20.25,0.51 22.22,9.97 1.23,12.85 -1,25.7 -0.7,38.58 -6.3,0.04 -12.59,0.32 -18.87,-0.05 -2.29,-10.31 4.66,-22.25 -1.26,-31.68 -3.71,-5.36 -10.93,-0.97 -12.77,3.8 -2.76,9.03 -1.97,18.63 -3.15,27.92 -6.28,0.06 -12.57,0.31 -18.84,-0.03 1.67,-15.9 2.53,-31.88 3.09,-47.86 6.23,-0.02 12.5,-0.37 18.73,0.08 -1.73,9.94 6.76,-1.05 11.55,-0.73 z"
     id="path137"
     style="filter:url(#filter2293)" />
  <path
     id="path139"
     style="stroke-width:1.33333;filter:url(#filter2289)"
     d="m 598.73242,189.34766 c -3.43562,0.0223 -6.86195,0.19586 -10.25195,0.50586 -31.18667,-0.13334 -47.72143,47.94578 -19.13477,63.42578 10.81334,6.02666 24.22834,2.12164 33.375,-5.31836 -0.38666,4.36 -0.6801,8.78573 -1.77343,13.03906 -9.37334,12.84 -27.37336,4.77393 -39.69336,1.94727 0.65333,6.01333 1.54575,12.01341 1.73242,18.08007 16.65333,4.64 35.58614,6.91917 52.13281,0.8125 9.76,-3.86666 12.69385,-14.94713 12.86719,-24.48046 -0.72,-21.30667 0.91989,-42.5061 1.22656,-63.7461 -9.78,-3.04 -20.17359,-4.3325 -30.48047,-4.26562 z m -5.5039,28.1914 c 3.65976,-0.0369 0.24648,14.18633 -5.22852,11.86133 -2.29333,-5.18667 0.72039,-9.02763 4.40039,-11.6543 0.30833,-0.13833 0.58414,-0.20457 0.82813,-0.20703 z"
     transform="matrix(0.75,0,0,0.75,-21.07863,0.04008719)" />
  <path
     fill="#ffff68"
     d="m 480.32137,142.58009 c 9.09,-0.87 24.18,-1.88 27.53,9.55 0.91,13 -1.55,25.86 -0.99,38.86 -6.32,0.04 -12.63,0.32 -18.93,-0.05 0.32,-6.97 1.36,-13.91 0.99,-20.9 -4.33,3.07 -16.36,1.9 -14.82,9.74 2.22,3.76 7.13,2.22 10.64,1.29 -0.87,3.27 -1.55,6.64 -3.12,9.67 -10.26,5.33 -27.58,-2.22 -24.41,-15.41 3.33,-12.04 16.93,-12.36 26.82,-15.15 4.01,-0.11 7.11,-4.75 3.19,-7.45 -7.77,-2.3 -15.95,1.43 -23.33,4.22 0.56,-3.9 0.31,-8.12 2.31,-11.63 4.34,-2.16 9.43,-1.84 14.12,-2.74 z"
     id="path141"
     style="filter:url(#filter2285)" />
  <path
     fill="#ffff68"
     d="m 547.29137,142.41009 c 6.98,-1.63 14.89,0.34 18.65,6.69 6.88,-9.23 23.66,-10.08 29.94,-0.03 2.88,13.78 -0.96,27.96 -0.05,41.91 -6.31,0.05 -12.6,0.33 -18.88,-0.04 -2.08,-11.06 4.65,-23.63 -1.23,-33.86 -5.32,-2.17 -7.52,3.49 -8.36,7.34 -0.42,8.86 -1.3,17.69 -1.57,26.57 -6.3,0.04 -12.59,0.31 -18.88,-0.05 -0.05,-10.38 2.36,-21.04 0.42,-31.27 -1.47,-5.39 -9.08,-2.18 -9.57,2.25 -1.74,9.58 -1.98,19.34 -1.92,29.06 -6.31,0.04 -12.6,0.33 -18.87,-0.04 -0.56,-15.98 1.55,-31.86 1.04,-47.85 6.02,2.02 21.81,-5.47 19,6.03 2.13,-3.79 6.29,-5.52 10.28,-6.71 z"
     id="path143"
     style="filter:url(#filter2281)" />
  <path
     fill="#ffff68"
     d="m 669.30137,142.44009 c 8.03,-1.82 20.25,0.51 22.22,9.97 1.22,12.85 -1,25.7 -0.7,38.58 -6.31,0.04 -12.59,0.32 -18.87,-0.05 -2.29,-10.31 4.66,-22.25 -1.26,-31.68 -3.72,-5.36 -10.93,-0.97 -12.77,3.8 -2.76,9.03 -1.97,18.63 -3.15,27.92 -6.29,0.06 -12.57,0.31 -18.84,-0.03 1.67,-15.9 2.52,-31.88 3.09,-47.86 6.22,-0.02 12.49,-0.37 18.73,0.08 -1.74,9.94 6.76,-1.05 11.55,-0.73 z"
     id="path145"
     style="filter:url(#filter2277)" />
  <path
     id="path147"
     style="stroke-width:1.33333;filter:url(#filter2273)"
     d="m 1005.3926,189.34766 c -3.435,0.0223 -6.85945,0.19586 -10.24612,0.50586 -31.2,-0.13334 -47.71947,47.94578 -19.13281,63.42578 10.8,6.02666 24.22643,2.12164 33.37303,-5.31836 -0.4133,4.36 -0.6801,8.78573 -1.7734,13.03906 -9.37335,12.84 -27.37338,4.77393 -39.69338,1.94727 0.65334,6.01333 1.54771,12.01341 1.73438,18.08007 16.65333,4.64 35.5861,6.91917 52.1328,0.8125 9.76,-3.86666 12.6939,-14.94713 12.8672,-24.48046 -0.72,-21.30667 0.9199,-42.5061 1.2266,-63.7461 -9.78,-3.04 -20.1833,-4.3325 -30.4883,-4.26562 z m -5.49807,28.1914 c 3.65977,-0.0369 0.24647,14.18633 -5.22851,11.86133 -2.32,-5.18667 0.73372,-9.02763 4.40039,-11.6543 0.30833,-0.13833 0.58414,-0.20457 0.82812,-0.20703 z"
     transform="matrix(0.75,0,0,0.75,-21.07863,0.04008719)" />
  <path
     fill="#ffff68"
     d="m 609.01137,143.09009 c 6.27,-0.05 12.59,-0.31 18.88,0.04 -2.07,15.87 -3.05,31.86 -3.05,47.86 -6.32,0.04 -12.62,0.3 -18.91,-0.04 1.87,-15.89 2.49,-31.88 3.08,-47.86 z"
     id="path149"
     style="filter:url(#filter2269)" />
  <path
     id="path153"
     style="stroke-width:1.33333;filter:url(#filter2261)"
     d="m 598.52734,207.83398 c -2.74458,-0.0191 -5.80002,0.55698 -7.38086,0.63282 -13.18666,2.84 -18.00005,25.20015 -4.38671,30.16015 14.28,2.21334 16.96033,-15.25278 17.01367,-25.43945 1.2975,-4.32 -1.71735,-5.32899 -5.2461,-5.35352 z m -5.29882,9.70508 c 3.65976,-0.0369 0.24648,14.18633 -5.22852,11.86133 -2.29333,-5.18667 0.72039,-9.02763 4.40039,-11.6543 0.30833,-0.13833 0.58414,-0.20457 0.82813,-0.20703 z"
     transform="matrix(0.75,0,0,0.75,-21.07863,0.04008719)" />
  <path
     id="path155"
     style="stroke-width:1.33333;filter:url(#filter2257)"
     d="m 1005.1895,207.83398 c -2.7457,-0.0191 -5.802,0.55698 -7.377,0.63282 -13.18667,2.84 -18.01339,25.20015 -4.38672,30.16015 14.28002,2.21334 16.96032,-15.25278 17.01372,-25.43945 1.2975,-4.32 -1.72,-5.32899 -5.25,-5.35352 z m -5.29497,9.70508 c 3.65977,-0.0369 0.24647,14.18633 -5.22851,11.86133 -2.32,-5.18667 0.73372,-9.02763 4.40039,-11.6543 0.30833,-0.13833 0.58414,-0.20457 0.82812,-0.20703 z"
     transform="matrix(0.75,0,0,0.75,-21.07863,0.04008719)" />
</svg>
