<?xml version="1.0" encoding="UTF-8"?>
<svg width="770pt" height="228.29pt" version="1.1" viewBox="0 0 769.99554 228.29262" xmlns="http://www.w3.org/2000/svg">
<defs>
<filter id="ac" x="0" y="0" width="1" height="1" color-interpolation-filters="sRGB">
<feColorMatrix result="color2" values="0 0 -1 0 1 0 -1 0 0 1 -1 0 0 0 1 -0.21 -0.72 -0.07 2 0 "/>
</filter>
<filter id="ab" x="0" y="0" width="1" height="1" color-interpolation-filters="sRGB">
<feColorMatrix result="color2" values="0 0 -1 0 1 0 -1 0 0 1 -1 0 0 0 1 -0.21 -0.72 -0.07 2 0 "/>
</filter>
<filter id="aa" x="0" y="0" width="1" height="1" color-interpolation-filters="sRGB">
<feColorMatrix result="color2" values="0 0 -1 0 1 0 -1 0 0 1 -1 0 0 0 1 -0.21 -0.72 -0.07 2 0 "/>
</filter>
<filter id="z" x="0" y="0" width="1" height="1" color-interpolation-filters="sRGB">
<feColorMatrix result="fbSourceGraphic" values="0 0 -1 0 1 0 -1 0 0 1 -1 0 0 0 1 -0.21 -0.72 -0.07 2 0 "/>
<feColorMatrix in="fbSourceGraphic" result="fbSourceGraphicAlpha" values="0 0 0 -1 0 0 0 0 -1 0 0 0 0 -1 0 0 0 0 1 0"/>
<feComposite in="fbSourceGraphic" in2="fbSourceGraphic" operator="arithmetic" result="composite1"/>
<feColorMatrix in="composite1" result="colormatrix1" type="saturate" values="1"/>
<feFlood flood-color="rgb(151,0,0)" result="flood1"/>
<feBlend in="flood1" in2="colormatrix1" result="blend1"/>
<feBlend in2="blend1" result="blend2"/>
<feColorMatrix in="blend2" result="colormatrix2" type="saturate" values="1"/>
<feComposite in="colormatrix2" in2="fbSourceGraphic" operator="in" result="composite2"/>
</filter>
<filter id="y" x="0" y="0" width="1" height="1" color-interpolation-filters="sRGB">
<feColorMatrix result="color2" values="0 0 -1 0 1 0 -1 0 0 1 -1 0 0 0 1 -0.21 -0.72 -0.07 2 0 "/>
</filter>
<filter id="x" x="0" y="0" width="1" height="1" color-interpolation-filters="sRGB">
<feColorMatrix result="color2" values="0 0 -1 0 1 0 -1 0 0 1 -1 0 0 0 1 -0.21 -0.72 -0.07 2 0 "/>
</filter>
<filter id="w" x="0" y="0" width="1" height="1" color-interpolation-filters="sRGB">
<feColorMatrix result="color2" values="0 0 -1 0 1 0 -1 0 0 1 -1 0 0 0 1 -0.21 -0.72 -0.07 2 0 "/>
</filter>
<filter id="v" x="0" y="0" width="1" height="1" color-interpolation-filters="sRGB">
<feColorMatrix result="fbSourceGraphic" values="0 0 -1 0 1 0 -1 0 0 1 -1 0 0 0 1 -0.21 -0.72 -0.07 2 0 "/>
<feColorMatrix in="fbSourceGraphic" result="fbSourceGraphicAlpha" values="0 0 0 -1 0 0 0 0 -1 0 0 0 0 -1 0 0 0 0 1 0"/>
<feComposite in="fbSourceGraphic" in2="fbSourceGraphic" operator="arithmetic" result="composite1"/>
<feColorMatrix in="composite1" result="colormatrix1" type="saturate" values="1"/>
<feFlood flood-color="rgb(151,0,0)" result="flood1"/>
<feBlend in="flood1" in2="colormatrix1" result="blend1"/>
<feBlend in2="blend1" result="blend2"/>
<feColorMatrix in="blend2" result="colormatrix2" type="saturate" values="1"/>
<feComposite in="colormatrix2" in2="fbSourceGraphic" operator="in" result="composite2"/>
</filter>
<filter id="u" x="0" y="0" width="1" height="1" color-interpolation-filters="sRGB">
<feColorMatrix result="color2" values="0 0 -1 0 1 0 -1 0 0 1 -1 0 0 0 1 -0.21 -0.72 -0.07 2 0 "/>
</filter>
<filter id="t" x="0" y="0" width="1" height="1" color-interpolation-filters="sRGB">
<feColorMatrix result="color2" values="0 0 -1 0 1 0 -1 0 0 1 -1 0 0 0 1 -0.21 -0.72 -0.07 2 0 "/>
</filter>
<filter id="s" x="0" y="0" width="1" height="1" color-interpolation-filters="sRGB">
<feColorMatrix result="color2" values="0 0 -1 0 1 0 -1 0 0 1 -1 0 0 0 1 -0.21 -0.72 -0.07 2 0 "/>
</filter>
<filter id="r" x="0" y="0" width="1" height="1" color-interpolation-filters="sRGB">
<feColorMatrix result="color2" values="0 0 -1 0 1 0 -1 0 0 1 -1 0 0 0 1 -0.21 -0.72 -0.07 2 0 "/>
</filter>
<filter id="q" x="0" y="0" width="1" height="1" color-interpolation-filters="sRGB">
<feColorMatrix result="color2" values="0 0 -1 0 1 0 -1 0 0 1 -1 0 0 0 1 -0.21 -0.72 -0.07 2 0 "/>
</filter>
<filter id="p" x="0" y="0" width="1" height="1" color-interpolation-filters="sRGB">
<feColorMatrix result="color2" values="0 0 -1 0 1 0 -1 0 0 1 -1 0 0 0 1 -0.21 -0.72 -0.07 2 0 "/>
</filter>
<filter id="o" x="0" y="0" width="1" height="1" color-interpolation-filters="sRGB">
<feColorMatrix result="color2" values="0 0 -1 0 1 0 -1 0 0 1 -1 0 0 0 1 -0.21 -0.72 -0.07 2 0 "/>
</filter>
<filter id="n" x="0" y="0" width="1" height="1" color-interpolation-filters="sRGB">
<feColorMatrix result="color2" values="0 0 -1 0 1 0 -1 0 0 1 -1 0 0 0 1 -0.21 -0.72 -0.07 2 0 "/>
</filter>
<filter id="m" x="0" y="0" width="1" height="1" color-interpolation-filters="sRGB">
<feColorMatrix result="color2" values="0 0 -1 0 1 0 -1 0 0 1 -1 0 0 0 1 -0.21 -0.72 -0.07 2 0 "/>
</filter>
<filter id="l" x="0" y="0" width="1" height="1" color-interpolation-filters="sRGB">
<feColorMatrix result="color2" values="0 0 -1 0 1 0 -1 0 0 1 -1 0 0 0 1 -0.21 -0.72 -0.07 2 0 "/>
</filter>
<filter id="k" x="0" y="0" width="1" height="1" color-interpolation-filters="sRGB">
<feColorMatrix result="fbSourceGraphic" values="0 0 -1 0 1 0 -1 0 0 1 -1 0 0 0 1 -0.21 -0.72 -0.07 2 0 "/>
<feColorMatrix in="fbSourceGraphic" result="fbSourceGraphicAlpha" values="0 0 0 -1 0 0 0 0 -1 0 0 0 0 -1 0 0 0 0 1 0"/>
<feComposite in="fbSourceGraphic" in2="fbSourceGraphic" operator="arithmetic" result="composite1"/>
<feColorMatrix in="composite1" result="colormatrix1" type="saturate" values="1"/>
<feFlood flood-color="rgb(195,0,0)" result="flood1"/>
<feBlend in="flood1" in2="colormatrix1" result="blend1"/>
<feBlend in2="blend1" result="blend2"/>
<feColorMatrix in="blend2" result="colormatrix2" type="saturate" values="1"/>
<feComposite in="colormatrix2" in2="fbSourceGraphic" operator="in" result="composite2"/>
</filter>
<filter id="j" x="0" y="0" width="1" height="1" color-interpolation-filters="sRGB">
<feColorMatrix result="color2" values="0 0 -1 0 1 0 -1 0 0 1 -1 0 0 0 1 -0.21 -0.72 -0.07 2 0 "/>
</filter>
<filter id="i" x="0" y="0" width="1" height="1" color-interpolation-filters="sRGB">
<feColorMatrix result="color2" values="0 0 -1 0 1 0 -1 0 0 1 -1 0 0 0 1 -0.21 -0.72 -0.07 2 0 "/>
</filter>
<filter id="h" x="0" y="0" width="1" height="1" color-interpolation-filters="sRGB">
<feColorMatrix result="color2" values="0 0 -1 0 1 0 -1 0 0 1 -1 0 0 0 1 -0.21 -0.72 -0.07 2 0 "/>
</filter>
<filter id="g" x="0" y="0" width="1" height="1" color-interpolation-filters="sRGB">
<feColorMatrix result="color2" values="0 0 -1 0 1 0 -1 0 0 1 -1 0 0 0 1 -0.21 -0.72 -0.07 2 0 "/>
</filter>
<filter id="f" x="0" y="0" width="1" height="1" color-interpolation-filters="sRGB">
<feColorMatrix result="fbSourceGraphic" values="0 0 -1 0 1 0 -1 0 0 1 -1 0 0 0 1 -0.21 -0.72 -0.07 2 0 "/>
<feColorMatrix in="fbSourceGraphic" result="fbSourceGraphicAlpha" values="0 0 0 -1 0 0 0 0 -1 0 0 0 0 -1 0 0 0 0 1 0"/>
<feColorMatrix in="fbSourceGraphic" result="color2" values="0 0 -1 0 1 0 -1 0 0 1 -1 0 0 0 1 -0.21 -0.72 -0.07 2 0 "/>
</filter>
<filter id="e" x="0" y="0" width="1" height="1" color-interpolation-filters="sRGB">
<feColorMatrix result="color2" values="0 0 -1 0 1 0 -1 0 0 1 -1 0 0 0 1 -0.21 -0.72 -0.07 2 0 "/>
</filter>
<filter id="d" x="0" y="0" width="1" height="1" color-interpolation-filters="sRGB">
<feColorMatrix result="color2" values="0 0 -1 0 1 0 -1 0 0 1 -1 0 0 0 1 -0.21 -0.72 -0.07 2 0 "/>
</filter>
<filter id="c" x="-.024903" y="-.02316" width="1.0498" height="1.0463" color-interpolation-filters="sRGB">
<feGaussianBlur stdDeviation="2.767189"/>
</filter>
<filter id="b" x="-.015567" y="-.052367" width="1.0311" height="1.1047" color-interpolation-filters="sRGB">
<feGaussianBlur stdDeviation="2.2704956"/>
</filter>
<filter id="a" x="-.014187" y="-.077832" width="1.0284" height="1.1557" color-interpolation-filters="sRGB">
<feGaussianBlur stdDeviation="4.3593986"/>
</filter>
</defs>
<path transform="matrix(.75 0 0 .75 -21.079 .040087)" d="m858.01 159.46c-5.9233 0.15-12.261 1.4838-17.574 0.92383-14.187 7.1733-4.9728 27.266-8.8262 40.066-3.12-20.08-30.507-22.666-45.48-15.812-11.96-0.70665-23.96-5.8808-35.92-1.1875-12.88 1.3867-36.866-8.6126-39.906 9.8008-15.04-18.773-44.614-12.053-65.027-6.6797-7.64 7.52-6.4131 20.426-5.4531 30.426-1.0933 0.0133-4.7338 3.213-3.7871 0.37305 0.68-10.093 5.7218-25.452-4.4648-31.572-26.8-7.5733-62.015-8.8803-79.602 16.68-1.1067-13.227-18.853-24.04-33.293-21.146-15.253 3.48-30.814 0.30542-46.24 1.7188-7.2533 2.1467-8.1065 11.041-7.4531 17.334-7.5067-26.027-41.24-19.399-61.826-15.812-13.667 1.9867-12.587 20.038-11.4 30.465 0.36 2.6-3.013 3.4685-4.5996 4.9219-4.9333 1.4533 0.37276-14.88-2.2539-18.773-1-1.5467-5.1723-4.7746-1.2656-5.2812 13.04-3.7067 15.44-30.213 1.6133-34.467-20.413-0.26666-40.841-0.1194-61.254-0.0527-5.7867-1.4933-12 2.3591-13.24 8.0391 0.10666 26.507-1.1736 52.975-3.627 79.375-1.0933 5.2533 0.93422 11.813 6.5742 13.467 10.293 1.32 20.826 0.25172 31.186 0.0117 12.813-5.08 4.8412-22.693 7.2012-32.84 10.187 0 20.386-0.10638 30.506-1.373-6.9333 18.133 8.188 39.08 28.055 35.986 17.213-2.3867 35.385 1.2536 52.012-4.0664 11.253 4.0533 25.401 4.8676 36.348 0.34765 7.9867-8.92 2.5323-23.16 6.2656-33.707 0.2-0.21333 1.2815-10.387 4.5215-7.1074 4.5733 12.493-9.0414 35.106 6.5586 42.76 10.107-1.48 29.014 6.3608 33.721-6.8125-3.5867-13.307 12.932 0.93224 4.959 4.8789-3.1067 8.6133-2.1585 22.228 4.8281 29.148 22.44 4.9067 48.519 8.3725 68.746-4.8809 5.8667-8.4133 7.5733-18.732 7.6133-28.812 8.5733 10.68 24.106 8.4925 36.279 7.5059 12.627-1.8 26.093 1.5064 38.16-3.3203 10.787 4.3733 23.614 3.5742 34.627 1.2676 3.56-4.0133 7.5738-1.6274 11.094 0.97265 10.747-0.28 23.76 3.6929 33.08-3.4805 11.653 6.6667 27.147 5.2002 39.867 1.2402 12.573 4.5067 28.106 4.9194 39.879-1.2539 4.1733 2.28 7.9477 6.0537 13.428 4.0137 8.1867-1.2133 21.612 3.681 25.865-6.2656 3.04-11.467 0.88172-23.827 4.7617-35.174 0.21333-1.32 1.9726-3.8004 3.1992-1.7871 4.5733 12.493-9.0395 35.106 6.5605 42.76 10.093-1.48 29.012 6.3608 33.719-6.8125-3.5867-13.307 12.934 0.93224 4.9609 4.8789-3.5333 10.187-2.4142 32.694 13.732 31.121 16.88 2.2267 35.135 4.5992 51.215-2.1875 19.627-6.8267 15.72-33.186 16-49.279-2.96-17.227 6.3729-36.719-1.7871-52.893-25.4-8.72-60.534-11.32-78.947 12.066-1.3333 3.08-8.8808 7.8124-5.1875-2.6543-6.3067-14.693-25.585-17.533-39.559-14.08-14.267 3.4933-31.335-5.1455-43.828 4.2012 0.04-7.0133-0.0383-14.013-0.23828-21-3.66-5.2933-9.1704-6.3277-15.094-6.1777zm-264.79 58.076c3.6598-0.0369 0.24648 14.186-5.2285 11.861-2.2933-5.1867 0.72039-9.0276 4.4004-11.654 0.30833-0.13833 0.58414-0.20457 0.82813-0.20703zm406.67 0c3.6598-0.0369 0.24647 14.186-5.2285 11.861-2.32-5.1867 0.73372-9.0276 4.4004-11.654 0.30833-0.13833 0.58414-0.20457 0.82812-0.20703z" filter="url(#a)" stroke-width="1.3333" style="mix-blend-mode:normal"/>
<path transform="matrix(.75 0 0 .75 -21.079 .040087)" d="m338.04 12.619c-7.2659 0.15275-15.142 2.0916-21.6 1.1016-5.1867 1.68-8.4127 7.532-7.0527 12.945 0.73333 19.613-2.0659 39.041-1.5859 58.654-0.21333 9.4933-5.6138 24.467 5.9062 28.947 10.293 1.3067 20.826 0.25172 31.186 0.0117 11.067-4.2667 6.4146-18.466 8.2812-27.6-3.92-11.907 10.613-4.8673 16.066-6.6406 1.08 9.5067-2.1731 19.081-0.45312 28.441 5.76 11.333 21.573 4.3728 31.213 6.1328 9.6267 2.5067 15.76-7.9993 13.68-16.279 10.467 20.813 40.241 18.892 59.814 16.719 6.7467 2.12 9.4251-4.1992 13.092-6.8926 9.2 12.147 29.268 7.8923 41.295 2.5723 9.2267 7.56 22.132 2.9335 33.012 3.5469 8.4933-2.4933 7.2815-12.893 7.2148-19.76 13.733 23.093 45.039 27.453 67.945 16.213 23.693-11.813 26.08-45.919 10.32-65.172-21.52-19.133-58.119-15.64-75.719 6.5332 1.5867-10.44 3.1066-21.067 2.3066-31.641-4.04-11.307-18.787-6.2404-27.627-7.0938-5.64-2.6133-8.5882 3.4015-13.215 3.9082-9.2267-7.56-22.158-2.9335-33.012-3.5469-12.96 6.2933-5.8805 24.252-8.5605 35.812-17.2-23.707-59.934-22.093-75.867 2.707-0.76-11.28 4.2946-23.72-0.41211-34.52-8.1333-9.5467-23.188-2.4533-33.828-4-12.507 4.9733-5.1452 21.839-7.1719 31.559-5-0.01333-14.988-0.01172-19.975-0.01172-1.1867-9 4.0673-18.987-0.35938-27.547-3.9608-4.2583-9.2433-5.2204-14.895-5.1016zm272.5 56.814c0.36612-0.0082 0.77914 0.07143 1.2441 0.25976 0.59936 0.27137 1.8211 0.92223 2.5059 3.7324 1.56 5.4-7.1854 10.028-7.4121 2.5879 0.77-2.1233 1.0993-6.5227 3.6621-6.5801z" filter="url(#b)" stroke-width="1.3333" style="mix-blend-mode:normal"/>
<path transform="matrix(.75 0 0 .75 -21.079 .040087)" d="m209.38 6.5996c-1.6835 0.055417-3.3455 0.30302-4.8555 0.67969-7.5333 0.64-13.293 6.0404-19.506 9.707-16.44 10.013-35.813 12.308-54.213 16.574-42.76 6.28-81.133 42.119-82.84 86.426-4.2533 19.853 15.746 30.707 26.652 42.801-11.653 18.76-30.254 34.092-39.867 54.639 0.46667 23.32 7.4947 46.068 12.361 68.814 1.2133 8.6667 13.425 4.9459 19.252 5.5859 10.667-10.467 7.8545-28.052 13.508-41.266 4.1067-13.027-10.388-18.88-15.881-27.707 5.3467-3.2 11.681-4.2933 17.334-6.9199 2.04-0.97333 5.7993-2.4938 5.666 1.2129 7.8533 19.453 11.174 40.786 7.9473 61.666-2.0533 6.1333 0.77322 12.601 7.2266 13.828 15.4 4.6933 18.827-15.293 27.094-23.373 15.04-21.16 27.08-44.388 43.16-64.814 1.7867-2.76-0.0676-6.8263 2.3457-9.293 13.013 2.5333 24.693-6.1608 37.293-7.1875-0.48 25.787-24.372 39.214-39.559 56.48-10.893 13.173-28.867 23.614-29.787 42.107 3.6533 8.24 15.346 7.9857 22.186 3.6523 12.16-10.92 23.308-23.227 36.375-33 18.773-14.8 43.386-1.7059 64.119-9.1992 17.093-9.72 24.214-29.654 31.854-46.721 6.6667-11.227 5.467-28.107-4.293-36.707-8.2133 2.3333-6.9613-5.2935-9.3613-9.4668-10.907-6.0267-21.745-12.186-32.785-17.959 4.6133-19.827 7.1718-40.041 11.785-59.867 2.6133-9.9867 6.8271-21.467 0.48047-31-6.6-8.04-18.921-4.5722-27.027-0.87891-8 5.5467-19.079 0.96003-25.266-4.3066 3.4267-9.2533 16.893-16.481 10.906-28.121-2-4.99-7.2541-6.553-12.305-6.3867zm-29.979 81.43c11.969 0.04456 23.921 2.4306 34.949 7.0781 1.28 3.2267-3.6118 2.052-5.3984 3.252-14.333 3.1867-29.28 2.6943-43.693 5.6543 2.0667-4.9733 0.2519-13.401 5.8652-15.641 2.7525-0.24 5.5154-0.35403 8.2773-0.34375zm-50.023 6.3965c5.9867 5.1733 12.721 9.6 18.254 15.307-2.84 17.973 18.146 25.854 32.199 27.867-5.1733 7.2667-23.746 5.3334-21.213 18.387-3.1867 12.227 7.3876 20.347 10.574 30.947-15.547-11.493-32.187-23.214-43.494-39.32 0.25333-9.7733 6.52-18.881 6.3066-28.947 1.2667-8.3067-2.627-16.04-2.627-24.24zm-44.986 24.627c3.48 0.93334 5.373 7.0007 7.6797 10.414-5.0667 0.93333-15.626-7.6674-7.6797-10.414zm191.73 56.801c-6.6133 16.067-13.705 33.839-26.799 45.426-5.6533-6.12-13.094-15.666-13.121-24.879 12.973-6.52 25.255-14.228 38.588-20.055z" filter="url(#c)" stroke-width="1.3333" style="mix-blend-mode:normal"/>
<path transform="matrix(.75 0 0 .75 -21.079 .040087)" d="m209.38 6.5996c-1.6835 0.055417-3.3455 0.30302-4.8555 0.67969-7.5333 0.64-13.293 6.0404-19.506 9.707-16.44 10.013-35.813 12.308-54.213 16.574-42.76 6.28-81.133 42.119-82.84 86.426-4.2533 19.853 15.746 30.707 26.652 42.801-11.653 18.76-30.254 34.092-39.867 54.639 0.46667 23.32 7.4947 46.068 12.361 68.814 1.2133 8.6667 13.425 4.9459 19.252 5.5859 10.667-10.467 7.8545-28.052 13.508-41.266 4.1067-13.027-10.388-18.88-15.881-27.707 5.3467-3.2 11.681-4.2933 17.334-6.9199 2.04-0.97333 5.7993-2.4938 5.666 1.2129 7.8533 19.453 11.174 40.786 7.9473 61.666-2.0533 6.1333 0.77322 12.601 7.2266 13.828 15.4 4.6933 18.827-15.293 27.094-23.373 15.04-21.16 27.08-44.388 43.16-64.814 1.7867-2.76-0.0676-6.8263 2.3457-9.293 13.013 2.5333 24.693-6.1608 37.293-7.1875-0.48 25.787-24.372 39.214-39.559 56.48-10.893 13.173-28.867 23.614-29.787 42.107 3.6533 8.24 15.346 7.9857 22.186 3.6523 12.16-10.92 23.308-23.227 36.375-33 18.773-14.8 43.386-1.7059 64.119-9.1992 17.093-9.72 24.214-29.654 31.854-46.721 6.6667-11.227 5.467-28.107-4.293-36.707-8.2133 2.3333-6.9613-5.2935-9.3613-9.4668-10.907-6.0267-21.745-12.186-32.785-17.959 4.6133-19.827 7.1718-40.041 11.785-59.867 2.6133-9.9867 6.8271-21.467 0.48047-31-6.6-8.04-18.921-4.5722-27.027-0.87891-8 5.5467-19.079 0.96003-25.266-4.3066 3.4267-9.2533 16.893-16.481 10.906-28.121-2-4.99-7.2541-6.553-12.305-6.3867zm-29.979 81.43c11.969 0.04456 23.921 2.4306 34.949 7.0781 1.28 3.2267-3.6118 2.052-5.3984 3.252-14.333 3.1867-29.28 2.6943-43.693 5.6543 2.0667-4.9733 0.2519-13.401 5.8652-15.641 2.7525-0.24 5.5154-0.35403 8.2773-0.34375zm-50.023 6.3965c5.9867 5.1733 12.721 9.6 18.254 15.307-2.84 17.973 18.146 25.854 32.199 27.867-5.1733 7.2667-23.746 5.3334-21.213 18.387-3.1867 12.227 7.3876 20.347 10.574 30.947-15.547-11.493-32.187-23.214-43.494-39.32 0.25333-9.7733 6.52-18.881 6.3066-28.947 1.2667-8.3067-2.627-16.04-2.627-24.24zm-44.986 24.627c3.48 0.93334 5.373 7.0007 7.6797 10.414-5.0667 0.93333-15.626-7.6674-7.6797-10.414zm191.73 56.801c-6.6133 16.067-13.705 33.839-26.799 45.426-5.6533-6.12-13.094-15.666-13.121-24.879 12.973-6.52 25.255-14.228 38.588-20.055z" filter="url(#d)" stroke-width="1.3333"/>
<path transform="matrix(.75 0 0 .75 -21.079 .040087)" d="m338.04 12.619c-7.2659 0.15275-15.142 2.0916-21.6 1.1016-5.1867 1.68-8.4127 7.532-7.0527 12.945 0.73333 19.613-2.0659 39.041-1.5859 58.654-0.21333 9.4933-5.6138 24.467 5.9062 28.947 10.293 1.3067 20.826 0.25172 31.186 0.0117 11.067-4.2667 6.4146-18.466 8.2812-27.6-3.92-11.907 10.613-4.8673 16.066-6.6406 1.08 9.5067-2.1731 19.081-0.45312 28.441 5.76 11.333 21.573 4.3728 31.213 6.1328 9.6267 2.5067 15.76-7.9993 13.68-16.279 10.467 20.813 40.241 18.892 59.814 16.719 6.7467 2.12 9.4251-4.1992 13.092-6.8926 9.2 12.147 29.268 7.8923 41.295 2.5723 9.2267 7.56 22.132 2.9335 33.012 3.5469 8.4933-2.4933 7.2815-12.893 7.2148-19.76 13.733 23.093 45.039 27.453 67.945 16.213 23.693-11.813 26.08-45.919 10.32-65.172-21.52-19.133-58.119-15.64-75.719 6.5332 1.5867-10.44 3.1066-21.067 2.3066-31.641-4.04-11.307-18.787-6.2404-27.627-7.0938-5.64-2.6133-8.5882 3.4015-13.215 3.9082-9.2267-7.56-22.158-2.9335-33.012-3.5469-12.96 6.2933-5.8805 24.252-8.5605 35.812-17.2-23.707-59.934-22.093-75.867 2.707-0.76-11.28 4.2946-23.72-0.41211-34.52-8.1333-9.5467-23.188-2.4533-33.828-4-12.507 4.9733-5.1452 21.839-7.1719 31.559-5-0.01333-14.988-0.01172-19.975-0.01172-1.1867-9 4.0673-18.987-0.35938-27.547-3.9608-4.2583-9.2433-5.2204-14.895-5.1016zm272.5 56.814c0.36612-0.0082 0.77914 0.07143 1.2441 0.25976 0.59936 0.27137 1.8211 0.92223 2.5059 3.7324 1.56 5.4-7.1854 10.028-7.4121 2.5879 0.77-2.1233 1.0993-6.5227 3.6621-6.5801z" filter="url(#e)" stroke-width="1.3333"/>
<path transform="matrix(.75 0 0 .75 -21.079 .040087)" d="m209 14.52c-3.4097 0.17564-7.1063 1.8355-9.7988 3.373-21.493 17.893-50.746 18.308-76.293 26.281-37.32 9.1733-70.133 44.747-66.506 84.693 5.68 11.933 16.52 20.052 26.174 28.559 12.787 0.08 14.128 6.0428 38.318-1.1719-11.307-11.64 4.5744-26.801 3.1211-40.201 1.2667-10.867-6.4662-19.998-6.5195-30.398 3.2533-2.2 7.8001-6.9739 11.467-2.5605 9.7867 6.0267 17.813 17.267 28.227 20.854 0.94667-8.4933 3.5458-16.695 4.8125-25.135 12.68 0.25333 25.266 1.4934 37.893 2.6934 10.693 2.9733 28.907 6.2682 30.707 19.521-24.667 8.1467-50.72 8.8924-76 12.426 12.84 18.96 39.028 16.587 58.814 21.494-14.28 8.8267-32.641 10.159-46.975 19.652 31.105 6.1544 62.094 9.0314 92.307-2.6797-5.4-4.4267-12.213-6.6527-18.439-9.666 7.36-28.453 10.761-57.773 18.334-86.146-3.7733-13.773-18.308-2.2414-26.814 0.94531-13.173 0.34667-24.293-7.1318-34.52-14.479 5.8133-8.5867 13-16.214 18.52-25.014-1.6975-2.415-4.1761-3.1776-6.8281-3.041zm-124.61 104.53c3.48 0.93334 5.373 7.0007 7.6797 10.414-5.0667 0.93333-15.626-7.6674-7.6797-10.414z" fill="#c30000" filter="url(#f)" stroke-width="1.3333"/>
<path d="m216.98 16.1c7.27-0.1 14.56-0.24 21.84 0.01-0.77 7.94-0.64 15.96-1.84 23.86 9.29 0.06 18.6 0.3 27.89-0.01 0.29-7.96-0.25-15.92 0.14-23.87 6.64-0.15 13.28-0.15 19.93 0.02-0.92 21.29-2.3 42.55-2.08 63.88-7.29 0.09-14.57 0.23-21.85-0.02 1.19-8.59 0.04-17.38 1.94-25.86-8.29-0.15-16.59-0.18-24.87 0-0.29 8.63-1.19 17.22-1.3 25.86-7.29 0.11-14.59 0.26-21.87 0 0.79-21.3 2.1-42.55 2.07-63.87z" fill="#ffff3c" filter="url(#g)"/>
<path d="m354.04 16.09c6.25-0.05 12.54-0.31 18.79 0.05-1.75 21.25-2.95 42.55-4.04 63.85-6.27 0.04-12.53 0.31-18.78-0.05 1.85-21.25 2.94-42.55 4.03-63.85z" fill="#ffff3c" filter="url(#h)"/>
<path d="m384.04 16.09c6.25-0.05 12.54-0.31 18.79 0.05-1.75 21.25-2.95 42.55-4.04 63.85-6.27 0.04-12.53 0.31-18.78-0.05 1.85-21.25 2.94-42.55 4.03-63.85z" fill="#ffff3c" filter="url(#i)"/>
<path d="m313.31 31.51c15.65-5.09 36.94 8.72 29.37 26.39-10.59 0.43-21.18-0.12-31.77 0.21-0.9 4 1.42 8.4 5.32 9.59 7.75 3.1 15.96 0.05 23.68-1.63-0.41 4.28-0.8 8.64-2.27 12.7-13.06 3.52-29.58 4.63-40.37-5.08-11.77-14.26-3.44-40.67 16.04-42.18z" fill="#ffff3c" filter="url(#j)"/>
<path transform="matrix(.75 0 0 .75 -21.079 .040087)" d="m613.44 40.652c-2.9773-0.01302-5.9854 0.36583-8.957 1.1875-19.813 1.96-36.734 22.227-30.027 42.307 8.32 33.32 66.56 31.773 72.854-2.3066 6.2417-21.758-13.028-41.096-33.869-41.188zm-2.8945 28.781c0.36612-0.0082 0.77914 0.07143 1.2441 0.25976 0.59936 0.27137 1.8211 0.92223 2.5059 3.7324 1.56 5.4-7.1854 10.028-7.4121 2.5879 0.77-2.1233 1.0993-6.5227 3.6621-6.5801z" filter="url(#k)" stroke-width="1.3333"/>
<path d="m317.26 42.31c5.52-2.35 11.36 2.94 9.7 8.68-3.77 0-11.3 0-15.07 0.01-0.57-3.74 1.81-7.51 5.37-8.69z" filter="url(#l)"/>
<path transform="matrix(.75 0 0 .75 -21.079 .040087)" d="m611.52 59.559c-1.3686-0.0193-2.8382 0.22911-4.3965 0.80078-9.2533 3.9067-11.892 19.467-4.1582 26.014 5.5333 5.9467 16.679 2.8672 18.279-5.1328 4.4917-8.2367-0.14408-21.547-9.7246-21.682zm-0.97265 9.875c0.36612-0.0082 0.77914 0.07143 1.2441 0.25976 0.59936 0.27137 1.8211 0.92223 2.5059 3.7324 1.56 5.4-7.1854 10.028-7.4121 2.5879 0.77-2.1233 1.0993-6.5227 3.6621-6.5801z" filter="url(#m)" stroke-width="1.3333"/>
<path transform="matrix(.75 0 0 .75 -21.079 .040087)" d="m86.414 104.01c-5.7733 5.2-12.121 10.039-17.121 15.973 4.9333 14.56 21.574 22.947 35.961 15.773-2.32-11.76-13.6-20.959-18.84-31.746zm-2.0273 15.039c3.48 0.93334 5.373 7.0007 7.6797 10.414-5.0667 0.93333-15.626-7.6674-7.6797-10.414z" filter="url(#n)" stroke-width="1.3333"/>
<path d="m103.75 115.99c23.08-0.3 46.2-0.55 69.23-2.01 4.89 2.85 13.8 4.23 14.77 9.72-14.51 6.09-28.64 13.57-41.62 22.45 4.63 9.61 10.25 18.67 16.25 27.47 1.15 0.78 2.6 2.16 3.88 0.78 16.21-10.89 19.91-31.44 30.39-46.47 5.54 12.95-3.26 24.33-8.02 35.85-4.49 6.21-7.51 15.11-15.85 17.03-12.32 2.94-25.17-2.58-37.21 1.85-14.43 4.91-23.53 17.79-34.3 27.69-1.84 3.36-6.04 3.24-9.41 3.73 0.22-4.11 3.18-7.39 6.13-9.97 12.2-13.79 25.28-26.7 38.5-39.49 5.94-9.28 7.83-20.7 8.39-31.58-10.92 0.59-21.3 5.05-31.57 7.87-2.7-8.21-10.76-17.31-9.56-24.92z" fill="#ffff68" filter="url(#o)"/>
<path d="m40.851 118.11c9.59 0.06 19.15-0.8 28.74-0.88 9.5 12 22.08 20.96 34.22 30.07-14.28 18.7-24.88 39.86-38.98 58.66-2.12 3.37-3.87 8.71-8.83 8.12 3.14-21.12 0.42-42.95-9.26-62.07-10.46 4.37-21.21 8-31.72 12.25 4.89 7.41 12.17 12.93 18.6 18.92-2.73 8.58-4.89 17.33-6.46 26.18 0.3 4.19-4.68 6.1-6.95 2.39-3.76-15.38-6.76-30.98-9.9-46.5 9.64-14.97 21.9-27.93 33.29-41.54 1.61-2.57-1.33-3.95-2.75-5.6z" fill="#ffff68" filter="url(#p)"/>
<path transform="matrix(.75 0 0 .75 -21.079 .040087)" d="m858.01 159.46c-5.9233 0.15-12.261 1.4838-17.574 0.92383-14.187 7.1733-4.9728 27.266-8.8262 40.066-3.12-20.08-30.507-22.666-45.48-15.812-11.96-0.70665-23.96-5.8808-35.92-1.1875-12.88 1.3867-36.866-8.6126-39.906 9.8008-15.04-18.773-44.614-12.053-65.027-6.6797-7.64 7.52-6.4131 20.426-5.4531 30.426-1.0933 0.0133-4.7338 3.213-3.7871 0.37305 0.68-10.093 5.7218-25.452-4.4648-31.572-26.8-7.5733-62.015-8.8803-79.602 16.68-1.1067-13.227-18.853-24.04-33.293-21.146-15.253 3.48-30.814 0.30542-46.24 1.7188-7.2533 2.1467-8.1065 11.041-7.4531 17.334-7.5067-26.027-41.24-19.399-61.826-15.812-13.667 1.9867-12.587 20.038-11.4 30.465 0.36 2.6-3.013 3.4685-4.5996 4.9219-4.9333 1.4533 0.37276-14.88-2.2539-18.773-1-1.5467-5.1723-4.7746-1.2656-5.2812 13.04-3.7067 15.44-30.213 1.6133-34.467-20.413-0.26666-40.841-0.1194-61.254-0.0527-5.7867-1.4933-12 2.3591-13.24 8.0391 0.10666 26.507-1.1736 52.975-3.627 79.375-1.0933 5.2533 0.93422 11.813 6.5742 13.467 10.293 1.32 20.826 0.25172 31.186 0.0117 12.813-5.08 4.8412-22.693 7.2012-32.84 10.187 0 20.386-0.10638 30.506-1.373-6.9333 18.133 8.188 39.08 28.055 35.986 17.213-2.3867 35.385 1.2536 52.012-4.0664 11.253 4.0533 25.401 4.8676 36.348 0.34765 7.9867-8.92 2.5323-23.16 6.2656-33.707 0.2-0.21333 1.2815-10.387 4.5215-7.1074 4.5733 12.493-9.0414 35.106 6.5586 42.76 10.107-1.48 29.014 6.3608 33.721-6.8125-3.5867-13.307 12.932 0.93224 4.959 4.8789-3.1067 8.6133-2.1585 22.228 4.8281 29.148 22.44 4.9067 48.519 8.3725 68.746-4.8809 5.8667-8.4133 7.5733-18.732 7.6133-28.812 8.5733 10.68 24.106 8.4925 36.279 7.5059 12.627-1.8 26.093 1.5064 38.16-3.3203 10.787 4.3733 23.614 3.5742 34.627 1.2676 3.56-4.0133 7.5738-1.6274 11.094 0.97265 10.747-0.28 23.76 3.6929 33.08-3.4805 11.653 6.6667 27.147 5.2002 39.867 1.2402 12.573 4.5067 28.106 4.9194 39.879-1.2539 4.1733 2.28 7.9477 6.0537 13.428 4.0137 8.1867-1.2133 21.612 3.681 25.865-6.2656 3.04-11.467 0.88172-23.827 4.7617-35.174 0.21333-1.32 1.9726-3.8004 3.1992-1.7871 4.5733 12.493-9.0395 35.106 6.5605 42.76 10.093-1.48 29.012 6.3608 33.719-6.8125-3.5867-13.307 12.934 0.93224 4.9609 4.8789-3.5333 10.187-2.4142 32.694 13.732 31.121 16.88 2.2267 35.135 4.5992 51.215-2.1875 19.627-6.8267 15.72-33.186 16-49.279-2.96-17.227 6.3729-36.719-1.7871-52.893-25.4-8.72-60.534-11.32-78.947 12.066-1.3333 3.08-8.8808 7.8124-5.1875-2.6543-6.3067-14.693-25.585-17.533-39.559-14.08-14.267 3.4933-31.335-5.1455-43.828 4.2012 0.04-7.0133-0.0383-14.013-0.23828-21-3.66-5.2933-9.1704-6.3277-15.094-6.1777zm-264.79 58.076c3.6598-0.0369 0.24648 14.186-5.2285 11.861-2.2933-5.1867 0.72039-9.0276 4.4004-11.654 0.30833-0.13833 0.58414-0.20457 0.82813-0.20703zm406.67 0c3.6598-0.0369 0.24647 14.186-5.2285 11.861-2.32-5.1867 0.73372-9.0276 4.4004-11.654 0.30833-0.13833 0.58414-0.20457 0.82812-0.20703z" filter="url(#q)" stroke-width="1.3333"/>
<path d="m609.95 126.09c6.21-0.05 12.46-0.27 18.69-0.01-0.32 3.62-0.62 7.25-0.9 10.88-5.95 0.09-11.88 0.34-17.8 0 0.01-2.72 0.01-8.15 0.01-10.87z" fill="#ffff68" filter="url(#r)"/>
<path d="m217.97 127.08c16.65-0.08 33.3-0.11 49.96 0.02 0.29 4.66-0.42 9.28-1.16 13.86-9.61 0.37-19.23-0.25-28.83 0.17 0.01 2.72 0.01 8.15 0.01 10.87 7.97 0.28 15.96-0.26 23.93 0.13 0.03 4.61 0.28 9.25-0.05 13.86-7.88 1-16.78-1.5-24.23 0.74-1.65 7.65-0.12 16.21-0.77 24.26-7.3 0.09-14.61 0.23-21.9-0.01 2.12-21.24 3.19-42.56 3.04-63.9z" fill="#ffff68" filter="url(#s)"/>
<path d="m294.32 142.58c9.09-0.87 24.18-1.88 27.53 9.55 0.91 13-1.54 25.86-0.99 38.86-6.32 0.04-12.63 0.32-18.93-0.05 0.32-6.97 1.36-13.91 0.99-20.9-4.32 3.07-16.36 1.9-14.82 9.74 2.23 3.76 7.13 2.22 10.64 1.29-0.87 3.27-1.55 6.64-3.12 9.67-10.26 5.33-27.58-2.22-24.41-15.41 3.33-12.04 16.93-12.36 26.82-15.15 4.01-0.11 7.11-4.75 3.19-7.45-7.77-2.3-15.95 1.43-23.33 4.22 0.56-3.9 0.31-8.12 2.31-11.63 4.34-2.16 9.43-1.84 14.12-2.74z" fill="#ffff68" filter="url(#t)"/>
<path d="m364.3 142.44c8.03-1.82 20.25 0.51 22.22 9.97 1.23 12.85-1 25.7-0.7 38.58-6.3 0.04-12.59 0.32-18.87-0.05-2.29-10.31 4.66-22.25-1.26-31.68-3.71-5.36-10.93-0.97-12.77 3.8-2.76 9.03-1.97 18.63-3.15 27.92-6.28 0.06-12.57 0.31-18.84-0.03 1.67-15.9 2.53-31.88 3.09-47.86 6.23-0.02 12.5-0.37 18.73 0.08-1.73 9.94 6.76-1.05 11.55-0.73z" fill="#ffff68" filter="url(#u)"/>
<path transform="matrix(.75 0 0 .75 -21.079 .040087)" d="m598.73 189.35c-3.4356 0.0223-6.862 0.19586-10.252 0.50586-31.187-0.13334-47.721 47.946-19.135 63.426 10.813 6.0267 24.228 2.1216 33.375-5.3184-0.38666 4.36-0.6801 8.7857-1.7734 13.039-9.3733 12.84-27.373 4.7739-39.693 1.9473 0.65333 6.0133 1.5458 12.013 1.7324 18.08 16.653 4.64 35.586 6.9192 52.133 0.8125 9.76-3.8667 12.694-14.947 12.867-24.48-0.72-21.307 0.91989-42.506 1.2266-63.746-9.78-3.04-20.174-4.3325-30.48-4.2656zm-5.5039 28.191c3.6598-0.0369 0.24648 14.186-5.2285 11.861-2.2933-5.1867 0.72039-9.0276 4.4004-11.654 0.30833-0.13833 0.58414-0.20457 0.82813-0.20703z" filter="url(#v)" stroke-width="1.3333"/>
<path d="m480.32 142.58c9.09-0.87 24.18-1.88 27.53 9.55 0.91 13-1.55 25.86-0.99 38.86-6.32 0.04-12.63 0.32-18.93-0.05 0.32-6.97 1.36-13.91 0.99-20.9-4.33 3.07-16.36 1.9-14.82 9.74 2.22 3.76 7.13 2.22 10.64 1.29-0.87 3.27-1.55 6.64-3.12 9.67-10.26 5.33-27.58-2.22-24.41-15.41 3.33-12.04 16.93-12.36 26.82-15.15 4.01-0.11 7.11-4.75 3.19-7.45-7.77-2.3-15.95 1.43-23.33 4.22 0.56-3.9 0.31-8.12 2.31-11.63 4.34-2.16 9.43-1.84 14.12-2.74z" fill="#ffff68" filter="url(#w)"/>
<path d="m547.29 142.41c6.98-1.63 14.89 0.34 18.65 6.69 6.88-9.23 23.66-10.08 29.94-0.03 2.88 13.78-0.96 27.96-0.05 41.91-6.31 0.05-12.6 0.33-18.88-0.04-2.08-11.06 4.65-23.63-1.23-33.86-5.32-2.17-7.52 3.49-8.36 7.34-0.42 8.86-1.3 17.69-1.57 26.57-6.3 0.04-12.59 0.31-18.88-0.05-0.05-10.38 2.36-21.04 0.42-31.27-1.47-5.39-9.08-2.18-9.57 2.25-1.74 9.58-1.98 19.34-1.92 29.06-6.31 0.04-12.6 0.33-18.87-0.04-0.56-15.98 1.55-31.86 1.04-47.85 6.02 2.02 21.81-5.47 19 6.03 2.13-3.79 6.29-5.52 10.28-6.71z" fill="#ffff68" filter="url(#x)"/>
<path d="m669.3 142.44c8.03-1.82 20.25 0.51 22.22 9.97 1.22 12.85-1 25.7-0.7 38.58-6.31 0.04-12.59 0.32-18.87-0.05-2.29-10.31 4.66-22.25-1.26-31.68-3.72-5.36-10.93-0.97-12.77 3.8-2.76 9.03-1.97 18.63-3.15 27.92-6.29 0.06-12.57 0.31-18.84-0.03 1.67-15.9 2.52-31.88 3.09-47.86 6.22-0.02 12.49-0.37 18.73 0.08-1.74 9.94 6.76-1.05 11.55-0.73z" fill="#ffff68" filter="url(#y)"/>
<path transform="matrix(.75 0 0 .75 -21.079 .040087)" d="m1005.4 189.35c-3.435 0.0223-6.8594 0.19586-10.246 0.50586-31.2-0.13334-47.719 47.946-19.133 63.426 10.8 6.0267 24.226 2.1216 33.373-5.3184-0.4133 4.36-0.6801 8.7857-1.7734 13.039-9.3734 12.84-27.373 4.7739-39.693 1.9473 0.65334 6.0133 1.5477 12.013 1.7344 18.08 16.653 4.64 35.586 6.9192 52.133 0.8125 9.76-3.8667 12.694-14.947 12.867-24.48-0.72-21.307 0.9199-42.506 1.2266-63.746-9.78-3.04-20.183-4.3325-30.488-4.2656zm-5.4981 28.191c3.6598-0.0369 0.24647 14.186-5.2285 11.861-2.32-5.1867 0.73372-9.0276 4.4004-11.654 0.30833-0.13833 0.58414-0.20457 0.82812-0.20703z" filter="url(#z)" stroke-width="1.3333"/>
<path d="m609.01 143.09c6.27-0.05 12.59-0.31 18.88 0.04-2.07 15.87-3.05 31.86-3.05 47.86-6.32 0.04-12.62 0.3-18.91-0.04 1.87-15.89 2.49-31.88 3.08-47.86z" fill="#ffff68" filter="url(#aa)"/>
<path transform="matrix(.75 0 0 .75 -21.079 .040087)" d="m598.53 207.83c-2.7446-0.0191-5.8 0.55698-7.3809 0.63282-13.187 2.84-18 25.2-4.3867 30.16 14.28 2.2133 16.96-15.253 17.014-25.439 1.2975-4.32-1.7174-5.329-5.2461-5.3535zm-5.2988 9.7051c3.6598-0.0369 0.24648 14.186-5.2285 11.861-2.2933-5.1867 0.72039-9.0276 4.4004-11.654 0.30833-0.13833 0.58414-0.20457 0.82813-0.20703z" filter="url(#ab)" stroke-width="1.3333"/>
<path transform="matrix(.75 0 0 .75 -21.079 .040087)" d="m1005.2 207.83c-2.7457-0.0191-5.802 0.55698-7.377 0.63282-13.187 2.84-18.013 25.2-4.3867 30.16 14.28 2.2133 16.96-15.253 17.014-25.439 1.2975-4.32-1.72-5.329-5.25-5.3535zm-5.295 9.7051c3.6598-0.0369 0.24647 14.186-5.2285 11.861-2.32-5.1867 0.73372-9.0276 4.4004-11.654 0.30833-0.13833 0.58414-0.20457 0.82812-0.20703z" filter="url(#ac)" stroke-width="1.3333"/>
</svg>
