<svg xmlns="http://www.w3.org/2000/svg" xmlns:xlink="http://www.w3.org/1999/xlink" width="576" height="170.667" viewBox="0 0 769.996 228.293"><style><![CDATA[.B{filter:url(#A)}.C{color-interpolation-filters:sRGB}.D{fill:#ffff68}]]></style><defs><filter id="A" x="0" y="0" width="1" height="1" class="C"><feColorMatrix values="0 0 -1 0 1 0 -1 0 0 1 -1 0 0 0 1 -0.21 -0.72 -0.07 2 0 "/></filter><filter id="B" x="0" y="0" width="1" height="1" class="C"><feColorMatrix result="A" values="0 0 -1 0 1 0 -1 0 0 1 -1 0 0 0 1 -0.21 -0.72 -0.07 2 0 "/><feColorMatrix values="0 0 0 -1 0 0 0 0 -1 0 0 0 0 -1 0 0 0 0 1 0"/><feComposite in="A" in2="A" operator="arithmetic"/><feColorMatrix result="D" type="saturate" values="1"/><feFlood flood-color="#970000"/><feBlend in2="D"/><feBlend/><feColorMatrix type="saturate" values="1"/><feComposite in2="A" operator="in"/></filter><filter id="C" x="0" y="0" width="1" height="1" class="C"><feColorMatrix result="A" values="0 0 -1 0 1 0 -1 0 0 1 -1 0 0 0 1 -0.21 -0.72 -0.07 2 0 "/><feColorMatrix values="0 0 0 -1 0 0 0 0 -1 0 0 0 0 -1 0 0 0 0 1 0"/><feComposite in="A" in2="A" operator="arithmetic"/><feColorMatrix result="D" type="saturate" values="1"/><feFlood flood-color="#c30000"/><feBlend in2="D"/><feBlend/><feColorMatrix type="saturate" values="1"/><feComposite in2="A" operator="in"/></filter><filter id="D" x="0" y="0" width="1" height="1" class="C"><feColorMatrix result="A" values="0 0 -1 0 1 0 -1 0 0 1 -1 0 0 0 1 -0.21 -0.72 -0.07 2 0 "/><feColorMatrix values="0 0 0 -1 0 0 0 0 -1 0 0 0 0 -1 0 0 0 0 1 0"/><feColorMatrix in="A" values="0 0 -1 0 1 0 -1 0 0 1 -1 0 0 0 1 -0.21 -0.72 -0.07 2 0 "/></filter><filter id="E" x="-.025" y="-.023" width="1.05" height="1.046" class="C"><feGaussianBlur stdDeviation="2.767"/></filter><filter id="F" x="-.016" y="-.052" width="1.031" height="1.105" class="C"><feGaussianBlur stdDeviation="2.27"/></filter><filter id="G" x="-.014" y="-.078" width="1.028" height="1.156" class="C"><feGaussianBlur stdDeviation="4.359"/></filter><path id="H" d="M858.01 159.46c-5.923.15-12.261 1.484-17.574.924-14.187 7.173-4.973 27.266-8.826 40.066-3.12-20.08-30.507-22.666-45.48-15.812-11.96-.707-23.96-5.881-35.92-1.187-12.88 1.387-36.866-8.613-39.906 9.801-15.04-18.773-44.614-12.053-65.027-6.68-7.64 7.52-6.413 20.426-5.453 30.426-1.093.013-4.734 3.213-3.787.373.68-10.093 5.722-25.452-4.465-31.572-26.8-7.573-62.015-8.88-79.602 16.68-1.107-13.227-18.853-24.04-33.293-21.146-15.253 3.48-30.814.305-46.24 1.719-7.253 2.147-8.106 11.041-7.453 17.334-7.507-26.027-41.24-19.399-61.826-15.812-13.667 1.987-12.587 20.038-11.4 30.465.36 2.6-3.013 3.469-4.6 4.922-4.933 1.453.373-14.88-2.254-18.773-1-1.547-5.172-4.775-1.266-5.281 13.04-3.707 15.44-30.213 1.613-34.467l-61.254-.053c-5.787-1.493-12 2.359-13.24 8.039.107 26.507-1.174 52.975-3.627 79.375-1.093 5.253.934 11.813 6.574 13.467 10.293 1.32 20.826.252 31.186.012 12.813-5.08 4.841-22.693 7.201-32.84 10.187 0 20.386-.106 30.506-1.373-6.933 18.133 8.188 39.08 28.055 35.986 17.213-2.387 35.385 1.254 52.012-4.066 11.253 4.053 25.401 4.868 36.348.348 7.987-8.92 2.532-23.16 6.266-33.707.2-.213 1.281-10.387 4.522-7.107 4.573 12.493-9.041 35.106 6.559 42.76 10.107-1.48 29.014 6.361 33.721-6.812-3.587-13.307 12.932.932 4.959 4.879-3.107 8.613-2.159 22.228 4.828 29.148 22.44 4.907 48.519 8.373 68.746-4.881 5.867-8.413 7.573-18.732 7.613-28.812 8.573 10.68 24.106 8.493 36.279 7.506 12.627-1.8 26.093 1.506 38.16-3.32 10.787 4.373 23.614 3.574 34.627 1.268 3.56-4.013 7.574-1.627 11.094.973 10.747-.28 23.76 3.693 33.08-3.481 11.653 6.667 27.147 5.2 39.867 1.24 12.573 4.507 28.106 4.919 39.879-1.254 4.173 2.28 7.948 6.054 13.428 4.014 8.187-1.213 21.612 3.681 25.865-6.266 3.04-11.467.882-23.827 4.762-35.174.213-1.32 1.973-3.8 3.199-1.787 4.573 12.493-9.039 35.106 6.561 42.76 10.093-1.48 29.012 6.361 33.719-6.812-3.587-13.307 12.934.932 4.961 4.879-3.533 10.187-2.414 32.694 13.732 31.121 16.88 2.227 35.135 4.599 51.215-2.187 19.627-6.827 15.72-33.186 16-49.279-2.96-17.227 6.373-36.719-1.787-52.893-25.4-8.72-60.534-11.32-78.947 12.066-1.333 3.08-8.881 7.812-5.187-2.654-6.307-14.693-25.585-17.533-39.559-14.08-14.267 3.493-31.335-5.145-43.828 4.201.04-7.013-.038-14.013-.238-21-3.66-5.293-9.17-6.328-15.094-6.178zm-264.79 58.076c3.66-.037.246 14.186-5.229 11.861-2.293-5.187.72-9.028 4.4-11.654.308-.138.584-.205.828-.207zm406.67 0c3.66-.037.246 14.186-5.229 11.861-2.32-5.187.734-9.028 4.4-11.654.308-.138.584-.205.828-.207z"/><path id="I" d="M338.04 12.619c-7.266.153-15.142 2.092-21.6 1.102-5.187 1.68-8.413 7.532-7.053 12.945.733 19.613-2.066 39.041-1.586 58.654-.213 9.493-5.614 24.467 5.906 28.947 10.293 1.307 20.826.252 31.186.012 11.067-4.267 6.415-18.466 8.281-27.6-3.92-11.907 10.613-4.867 16.066-6.641 1.08 9.507-2.173 19.081-.453 28.441 5.76 11.333 21.573 4.373 31.213 6.133 9.627 2.507 15.76-7.999 13.68-16.279 10.467 20.813 40.241 18.892 59.814 16.719 6.747 2.12 9.425-4.199 13.092-6.893 9.2 12.147 29.268 7.892 41.295 2.572 9.227 7.56 22.132 2.933 33.012 3.547 8.493-2.493 7.282-12.893 7.215-19.76 13.733 23.093 45.039 27.453 67.945 16.213 23.693-11.813 26.08-45.919 10.32-65.172-21.52-19.133-58.119-15.64-75.719 6.533 1.587-10.44 3.107-21.067 2.307-31.641-4.04-11.307-18.787-6.24-27.627-7.094-5.64-2.613-8.588 3.402-13.215 3.908-9.227-7.56-22.158-2.934-33.012-3.547-12.96 6.293-5.88 24.252-8.56 35.812-17.2-23.707-59.934-22.093-75.867 2.707-.76-11.28 4.295-23.72-.412-34.52-8.133-9.547-23.188-2.453-33.828-4-12.507 4.973-5.145 21.839-7.172 31.559l-19.975-.012c-1.187-9 4.067-18.987-.359-27.547-3.961-4.258-9.243-5.22-14.895-5.102zm272.5 56.814c.366-.008.779.071 1.244.26.599.271 1.821.922 2.506 3.732 1.56 5.4-7.185 10.028-7.412 2.588.77-2.123 1.099-6.523 3.662-6.58z"/><path id="J" d="M209.38 6.6a23.47 23.47 0 0 0-4.856.68c-7.533.64-13.293 6.04-19.506 9.707-16.44 10.013-35.813 12.308-54.213 16.574-42.76 6.28-81.133 42.119-82.84 86.426-4.253 19.853 15.746 30.707 26.652 42.801-11.653 18.76-30.254 34.092-39.867 54.639.467 23.32 7.495 46.068 12.361 68.814 1.213 8.667 13.425 4.946 19.252 5.586 10.667-10.467 7.855-28.052 13.508-41.266 4.107-13.027-10.388-18.88-15.881-27.707 5.347-3.2 11.681-4.293 17.334-6.92 2.04-.973 5.799-2.494 5.666 1.213 7.853 19.453 11.174 40.786 7.947 61.666-2.053 6.133.773 12.601 7.227 13.828 15.4 4.693 18.827-15.293 27.094-23.373 15.04-21.16 27.08-44.388 43.16-64.814 1.787-2.76-.068-6.826 2.346-9.293 13.013 2.533 24.693-6.161 37.293-7.187-.48 25.787-24.372 39.214-39.559 56.48-10.893 13.173-28.867 23.614-29.787 42.107 3.653 8.24 15.346 7.986 22.186 3.652 12.16-10.92 23.308-23.227 36.375-33 18.773-14.8 43.386-1.706 64.119-9.199 17.093-9.72 24.214-29.654 31.854-46.721 6.667-11.227 5.467-28.107-4.293-36.707-8.213 2.333-6.961-5.293-9.361-9.467l-32.785-17.959c4.613-19.827 7.172-40.041 11.785-59.867 2.613-9.987 6.827-21.467.48-31-6.6-8.04-18.921-4.572-27.027-.879-8 5.547-19.079.96-25.266-4.307 3.427-9.253 16.893-16.481 10.906-28.121-2-4.99-7.254-6.553-12.305-6.387zm-29.979 81.43c11.969.045 23.921 2.431 34.949 7.078 1.28 3.227-3.612 2.052-5.398 3.252-14.333 3.187-29.28 2.694-43.693 5.654 2.067-4.973.252-13.401 5.865-15.641a91.39 91.39 0 0 1 8.277-.344zm-50.023 6.397c5.987 5.173 12.721 9.6 18.254 15.307-2.84 17.973 18.146 25.854 32.199 27.867-5.173 7.267-23.746 5.333-21.213 18.387-3.187 12.227 7.388 20.347 10.574 30.947-15.547-11.493-32.187-23.214-43.494-39.32.253-9.773 6.52-18.881 6.307-28.947 1.267-8.307-2.627-16.04-2.627-24.24zm-44.986 24.627c3.48.933 5.373 7.001 7.68 10.414-5.067.933-15.626-7.667-7.68-10.414zm191.73 56.801c-6.613 16.067-13.705 33.839-26.799 45.426-5.653-6.12-13.094-15.666-13.121-24.879 12.973-6.52 25.255-14.228 38.588-20.055z"/><path id="K" d="M354.04 16.09c6.25-.05 12.54-.31 18.79.05-1.75 21.25-2.95 42.55-4.04 63.85-6.27.04-12.53.31-18.78-.05 1.85-21.25 2.94-42.55 4.03-63.85z"/></defs><g transform="matrix(.75 0 0 .75 -21.079 .040087)"><use xlink:href="#H" filter="url(#G)"/><use xlink:href="#I" filter="url(#F)"/><use xlink:href="#J" filter="url(#E)"/><use xlink:href="#J" class="B"/><use xlink:href="#I" class="B"/><path d="M209 14.52c-3.41.176-7.106 1.835-9.799 3.373-21.493 17.893-50.746 18.308-76.293 26.281-37.32 9.173-70.133 44.747-66.506 84.693 5.68 11.933 16.52 20.052 26.174 28.559 12.787.08 14.128 6.043 38.318-1.172-11.307-11.64 4.574-26.801 3.121-40.201 1.267-10.867-6.466-19.998-6.519-30.398 3.253-2.2 7.8-6.974 11.467-2.561 9.787 6.027 17.813 17.267 28.227 20.854.947-8.493 3.546-16.695 4.813-25.135 12.68.253 25.266 1.493 37.893 2.693 10.693 2.973 28.907 6.268 30.707 19.521-24.667 8.147-50.72 8.892-76 12.426 12.84 18.96 39.028 16.587 58.814 21.494-14.28 8.827-32.641 10.159-46.975 19.652 31.105 6.154 62.094 9.031 92.307-2.68-5.4-4.427-12.213-6.653-18.439-9.666 7.36-28.453 10.761-57.773 18.334-86.146-3.773-13.773-18.308-2.241-26.814.945-13.173.347-24.293-7.132-34.52-14.479 5.813-8.587 13-16.214 18.52-25.014-1.697-2.415-4.176-3.178-6.828-3.041zM84.39 119.05c3.48.933 5.373 7.001 7.68 10.414-5.067.933-15.626-7.667-7.68-10.414z" fill="#c30000" filter="url(#D)"/></g><g fill="#ffff3c" class="B"><path d="M216.98 16.1c7.27-.1 14.56-.24 21.84.01-.77 7.94-.64 15.96-1.84 23.86 9.29.06 18.6.3 27.89-.01.29-7.96-.25-15.92.14-23.87a413.83 413.83 0 0 1 19.93.02c-.92 21.29-2.3 42.55-2.08 63.88-7.29.09-14.57.23-21.85-.02 1.19-8.59.04-17.38 1.94-25.86-8.29-.15-16.59-.18-24.87 0-.29 8.63-1.19 17.22-1.3 25.86-7.29.11-14.59.26-21.87 0 .79-21.3 2.1-42.55 2.07-63.87z"/><use xlink:href="#K"/><use xlink:href="#K" x="30"/><path d="M313.31 31.51c15.65-5.09 36.94 8.72 29.37 26.39-10.59.43-21.18-.12-31.77.21-.9 4 1.42 8.4 5.32 9.59 7.75 3.1 15.96.05 23.68-1.63-.41 4.28-.8 8.64-2.27 12.7-13.06 3.52-29.58 4.63-40.37-5.08-11.77-14.26-3.44-40.67 16.04-42.18z"/></g><path transform="matrix(.75 0 0 .75 -21.079 .040087)" d="M613.44 40.652a33.01 33.01 0 0 0-8.957 1.188c-19.813 1.96-36.734 22.227-30.027 42.307 8.32 33.32 66.56 31.773 72.854-2.307 6.242-21.758-13.028-41.096-33.869-41.188zm-2.894 28.781c.366-.008.779.071 1.244.26.599.271 1.821.922 2.506 3.732 1.56 5.4-7.185 10.028-7.412 2.588.77-2.123 1.099-6.523 3.662-6.58z" filter="url(#C)"/><path d="M317.26 42.31c5.52-2.35 11.36 2.94 9.7 8.68l-15.07.01c-.57-3.74 1.81-7.51 5.37-8.69z" class="B"/><g transform="matrix(.75 0 0 .75 -21.079 .040087)" class="B"><path d="M611.52 59.559c-1.369-.019-2.838.229-4.396.801-9.253 3.907-11.892 19.467-4.158 26.014 5.533 5.947 16.679 2.867 18.279-5.133 4.492-8.237-.144-21.547-9.725-21.682zm-.973 9.875c.366-.008.779.071 1.244.26.599.271 1.821.922 2.506 3.732 1.56 5.4-7.185 10.028-7.412 2.588.77-2.123 1.099-6.523 3.662-6.58z"/><path d="M86.414 104.01c-5.773 5.2-12.121 10.039-17.121 15.973 4.933 14.56 21.574 22.947 35.961 15.773-2.32-11.76-13.6-20.959-18.84-31.746zm-2.027 15.039c3.48.933 5.373 7.001 7.68 10.414-5.067.933-15.626-7.667-7.68-10.414z"/></g><g class="D B"><path d="M103.75 115.99c23.08-.3 46.2-.55 69.23-2.01 4.89 2.85 13.8 4.23 14.77 9.72-14.51 6.09-28.64 13.57-41.62 22.45 4.63 9.61 10.25 18.67 16.25 27.47 1.15.78 2.6 2.16 3.88.78 16.21-10.89 19.91-31.44 30.39-46.47 5.54 12.95-3.26 24.33-8.02 35.85-4.49 6.21-7.51 15.11-15.85 17.03-12.32 2.94-25.17-2.58-37.21 1.85-14.43 4.91-23.53 17.79-34.3 27.69-1.84 3.36-6.04 3.24-9.41 3.73.22-4.11 3.18-7.39 6.13-9.97 12.2-13.79 25.28-26.7 38.5-39.49 5.94-9.28 7.83-20.7 8.39-31.58-10.92.59-21.3 5.05-31.57 7.87-2.7-8.21-10.76-17.31-9.56-24.92z"/><path d="M40.851 118.11c9.59.06 19.15-.8 28.74-.88 9.5 12 22.08 20.96 34.22 30.07-14.28 18.7-24.88 39.86-38.98 58.66-2.12 3.37-3.87 8.71-8.83 8.12 3.14-21.12.42-42.95-9.26-62.07-10.46 4.37-21.21 8-31.72 12.25 4.89 7.41 12.17 12.93 18.6 18.92-2.73 8.58-4.89 17.33-6.46 26.18.3 4.19-4.68 6.1-6.95 2.39-3.76-15.38-6.76-30.98-9.9-46.5 9.64-14.97 21.9-27.93 33.29-41.54 1.61-2.57-1.33-3.95-2.75-5.6z"/></g><use xlink:href="#H" transform="matrix(.75 0 0 .75 -21.079 .040087)" class="B"/><g class="D B"><path d="M609.95 126.09c6.21-.05 12.46-.27 18.69-.01l-.9 10.88c-5.95.09-11.88.34-17.8 0l.01-10.87z"/><path d="M217.97 127.08l49.96.02c.29 4.66-.42 9.28-1.16 13.86-9.61.37-19.23-.25-28.83.17l.01 10.87c7.97.28 15.96-.26 23.93.13.03 4.61.28 9.25-.05 13.86-7.88 1-16.78-1.5-24.23.74-1.65 7.65-.12 16.21-.77 24.26-7.3.09-14.61.23-21.9-.01 2.12-21.24 3.19-42.56 3.04-63.9z"/><path d="M294.32 142.58c9.09-.87 24.18-1.88 27.53 9.55.91 13-1.54 25.86-.99 38.86-6.32.04-12.63.32-18.93-.05.32-6.97 1.36-13.91.99-20.9-4.32 3.07-16.36 1.9-14.82 9.74 2.23 3.76 7.13 2.22 10.64 1.29-.87 3.27-1.55 6.64-3.12 9.67-10.26 5.33-27.58-2.22-24.41-15.41 3.33-12.04 16.93-12.36 26.82-15.15 4.01-.11 7.11-4.75 3.19-7.45-7.77-2.3-15.95 1.43-23.33 4.22.56-3.9.31-8.12 2.31-11.63 4.34-2.16 9.43-1.84 14.12-2.74z"/><path d="M364.3 142.44c8.03-1.82 20.25.51 22.22 9.97 1.23 12.85-1 25.7-.7 38.58-6.3.04-12.59.32-18.87-.05-2.29-10.31 4.66-22.25-1.26-31.68-3.71-5.36-10.93-.97-12.77 3.8-2.76 9.03-1.97 18.63-3.15 27.92-6.28.06-12.57.31-18.84-.03 1.67-15.9 2.53-31.88 3.09-47.86 6.23-.02 12.5-.37 18.73.08-1.73 9.94 6.76-1.05 11.55-.73z"/></g><path transform="matrix(.75 0 0 .75 -21.079 .040087)" d="M598.73 189.35c-3.436.022-6.862.196-10.252.506-31.187-.133-47.721 47.946-19.135 63.426 10.813 6.027 24.228 2.122 33.375-5.318-.387 4.36-.68 8.786-1.773 13.039-9.373 12.84-27.373 4.774-39.693 1.947.653 6.013 1.546 12.013 1.732 18.08 16.653 4.64 35.586 6.919 52.133.813 9.76-3.867 12.694-14.947 12.867-24.48-.72-21.307.92-42.506 1.227-63.746-9.78-3.04-20.174-4.333-30.48-4.266zm-5.504 28.191c3.66-.037.246 14.186-5.229 11.861-2.293-5.187.72-9.028 4.4-11.654.308-.138.584-.205.828-.207z" filter="url(#B)"/><g class="D B"><path d="M480.32 142.58c9.09-.87 24.18-1.88 27.53 9.55.91 13-1.55 25.86-.99 38.86-6.32.04-12.63.32-18.93-.05.32-6.97 1.36-13.91.99-20.9-4.33 3.07-16.36 1.9-14.82 9.74 2.22 3.76 7.13 2.22 10.64 1.29-.87 3.27-1.55 6.64-3.12 9.67-10.26 5.33-27.58-2.22-24.41-15.41 3.33-12.04 16.93-12.36 26.82-15.15 4.01-.11 7.11-4.75 3.19-7.45-7.77-2.3-15.95 1.43-23.33 4.22.56-3.9.31-8.12 2.31-11.63 4.34-2.16 9.43-1.84 14.12-2.74z"/><path d="M547.29 142.41c6.98-1.63 14.89.34 18.65 6.69 6.88-9.23 23.66-10.08 29.94-.03 2.88 13.78-.96 27.96-.05 41.91-6.31.05-12.6.33-18.88-.04-2.08-11.06 4.65-23.63-1.23-33.86-5.32-2.17-7.52 3.49-8.36 7.34l-1.57 26.57c-6.3.04-12.59.31-18.88-.05-.05-10.38 2.36-21.04.42-31.27-1.47-5.39-9.08-2.18-9.57 2.25-1.74 9.58-1.98 19.34-1.92 29.06-6.31.04-12.6.33-18.87-.04-.56-15.98 1.55-31.86 1.04-47.85 6.02 2.02 21.81-5.47 19 6.03 2.13-3.79 6.29-5.52 10.28-6.71z"/><path d="M669.3 142.44c8.03-1.82 20.25.51 22.22 9.97 1.22 12.85-1 25.7-.7 38.58-6.31.04-12.59.32-18.87-.05-2.29-10.31 4.66-22.25-1.26-31.68-3.72-5.36-10.93-.97-12.77 3.8-2.76 9.03-1.97 18.63-3.15 27.92-6.29.06-12.57.31-18.84-.03 1.67-15.9 2.52-31.88 3.09-47.86 6.22-.02 12.49-.37 18.73.08-1.74 9.94 6.76-1.05 11.55-.73z"/></g><path transform="matrix(.75 0 0 .75 -21.079 .040087)" d="M1005.4 189.35c-3.435.022-6.859.196-10.246.506-31.2-.133-47.719 47.946-19.133 63.426 10.8 6.027 24.226 2.122 33.373-5.318-.413 4.36-.68 8.786-1.773 13.039-9.373 12.84-27.373 4.774-39.693 1.947.653 6.013 1.548 12.013 1.734 18.08 16.653 4.64 35.586 6.919 52.133.813 9.76-3.867 12.694-14.947 12.867-24.48-.72-21.307.92-42.506 1.227-63.746-9.78-3.04-20.183-4.333-30.488-4.266zm-5.498 28.191c3.66-.037.246 14.186-5.229 11.861-2.32-5.187.734-9.028 4.4-11.654.308-.138.584-.205.828-.207z" filter="url(#B)"/><path d="M609.01 143.09c6.27-.05 12.59-.31 18.88.04-2.07 15.87-3.05 31.86-3.05 47.86-6.32.04-12.62.3-18.91-.04 1.87-15.89 2.49-31.88 3.08-47.86z" class="B D"/><g transform="matrix(.75 0 0 .75 -21.079 .040087)" class="B"><path d="M598.53 207.83c-2.745-.019-5.8.557-7.381.633-13.187 2.84-18 25.2-4.387 30.16 14.28 2.213 16.96-15.253 17.014-25.439 1.298-4.32-1.717-5.329-5.246-5.353zm-5.299 9.705c3.66-.037.246 14.186-5.229 11.861-2.293-5.187.72-9.028 4.4-11.654.308-.138.584-.205.828-.207z"/><path d="M1005.2 207.83c-2.746-.019-5.802.557-7.377.633-13.187 2.84-18.013 25.2-4.387 30.16 14.28 2.213 16.96-15.253 17.014-25.439 1.298-4.32-1.72-5.329-5.25-5.353zm-5.295 9.705c3.66-.037.246 14.186-5.229 11.861-2.32-5.187.734-9.028 4.4-11.654.308-.138.584-.205.828-.207z"/></g></svg>